<svg xmlns="http://www.w3.org/2000/svg" version="1.1" xmlns:xlink="http://www.w3.org/1999/xlink" xmlns:svgjs="http://svgjs.dev/svgjs" viewBox="0 0 800 800"><defs><linearGradient x1="50%" y1="0%" x2="50%" y2="100%" id="ccchaos-grad"><stop stop-color="hsl(206, 75%, 49%)" stop-opacity="1" offset="0%"></stop><stop stop-color="hsl(331, 90%, 56%)" stop-opacity="1" offset="100%"></stop></linearGradient></defs><g stroke-width="2" stroke="url(#ccchaos-grad)" fill="none" stroke-linecap="round"><path d="M380.27 114.47C389.68 112.27 399.08 110.63 408.45 109.58 417.84 108.65 427.23 108.37 436.62 108.75 446.04 109.35 455.49 110.66 464.97 112.65 474.53 114.91 484.16 117.87 493.85 121.49 503.66 125.38 513.57 129.91 523.58 135.04 533.72 140.41 543.98 146.33 554.3 152.75 564.75 159.35 575.25 166.4 585.73 173.84 596.25 181.4 606.66 189.3 616.86 197.5 626.94 205.74 636.66 214.25 645.89 222.97 654.75 231.7 662.94 240.62 670.29 249.7 677.04 258.76 682.78 267.96 687.37 277.29 691.19 286.58 693.76 295.99 695.04 305.51 695.53 315 694.76 324.61 692.79 334.31 690.26 343.99 686.74 353.77 682.38 363.66 677.93 373.53 673.01 383.51 667.82 393.58 663.12 403.65 658.57 413.8 654.35 424.03 651.14 434.26 648.6 444.31 646.77 454.16 646.1 464 646.08 473.61 646.64 482.97 648.14 492.3 649.97 501.35 651.96 510.07 654.48 518.73 656.82 527.03 658.84 534.92 660.9 542.72 662.34 550.07 663.03 556.94 663.4 563.68 662.84 569.91 661.31 575.59 659.26 581.12 656.19 586.1 652.13 590.51 647.51 594.8 641.96 598.54 635.56 601.74 628.69 604.9 621.09 607.58 612.85 609.83 604.29 612.17 595.22 614.18 585.75 615.94 576.1 617.95 566.16 619.85 556.01 621.7 545.79 624.01 535.44 626.4 525.03 628.96 514.61 632.12 504.17 635.53 493.75 639.22 483.35 643.58 472.99 648.22 462.7 653.1 452.44 658.58 442.24 664.2 432.13 669.85 422.04 675.85 412.02 681.68 402.1 687.18 392.18 692.65 382.57 697.4 373.27 701.31 363.95 704.83 354.93 707.32 346.2 708.73 337.43 709.52 328.93 709.14 320.71 707.61 312.43 705.41 304.4 702.07 296.62 697.69 288.75 692.71 281.11 686.79 273.69 680.04 266.15 672.85 258.8 664.99 251.65 656.56 244.35 647.9 237.22 638.82 230.26 629.43 223.14 619.98 216.18 610.32 209.38 600.55 202.42 590.84 195.63 581.08 189.04 571.31 182.31 561.67 175.79 552.05 169.52 542.47 163.18 533.04 157.12 523.64 151.39 514.28 145.67 505.05 140.32 495.83 135.41 486.62 130.57 477.51 126.22 468.37 122.4 459.2 118.74 450.1 115.64 440.92 113.16 431.69 110.89 422.49 109.25 413.21 108.27 403.85 107.52 394.5 107.44 385.06 108.04 375.55 108.83 366.04 110.26 356.68 112.28 347.5 114.42 338.32 117.09 329.32 120.24 320.54 123.41 311.78 127.01 303.24 130.98 294.95 134.89 286.7 139.12 278.72 143.63 271.04 148 263.4 152.62 256.08 157.46 249.11 162.11 242.18 166.96 235.6 172 229.4 176.84 223.23 181.88 217.43 187.1 212.01 192.14 206.59 197.39 201.54 202.86 196.86 208.18 192.14 213.75 187.75 219.57 183.69 225.29 179.54 231.3 175.66 237.58 172.06 243.81 168.29 250.35 164.75 257.18 161.43 263.99 157.87 271.12 154.49 278.53 151.28 285.95 147.8 293.66 144.46 301.65 141.29 309.64 137.84 317.9 134.55 326.42 131.46 334.93 128.13 343.69 125.03 352.67 122.22 361.65 119.26 370.85 116.66 380.26 114.47" stroke-dasharray="9 7" transform="rotate(0, 400, 400)" opacity="0.05"></path><path d="M382.81 125.48C391.92 123.31 401.04 121.67 410.18 120.59 419.34 119.62 428.52 119.28 437.73 119.56 446.98 120.04 456.27 121.2 465.62 123 475.03 125.06 484.53 127.78 494.09 131.14 503.75 134.75 513.5 138.99 523.32 143.79 533.25 148.83 543.25 154.41 553.28 160.48 563.39 166.72 573.49 173.42 583.51 180.5 593.52 187.71 603.36 195.27 612.93 203.13 622.33 211.05 631.32 219.24 639.79 227.65 647.87 236.09 655.26 244.72 661.83 253.51 667.81 262.3 672.82 271.24 676.75 280.31 679.96 289.35 682.03 298.51 682.91 307.77 683.09 317.01 682.14 326.35 680.1 335.78 677.6 345.19 674.22 354.69 670.08 364.27 665.9 373.84 661.3 383.5 656.46 393.21 652.08 402.92 647.82 412.7 643.84 422.51 640.79 432.32 638.31 441.94 636.46 451.32 635.66 460.7 635.44 469.83 635.74 478.69 636.91 487.52 638.38 496.05 640.03 504.24 642.19 512.38 644.22 520.16 646 527.53 647.88 534.81 649.23 541.66 649.93 548.05 650.25 557.22 645.98 572.89 641.23 579.35 637.29 583.4 632.46 586.97 626.82 590.05 620.75 593.13 613.96 595.81 606.53 598.11 598.78 600.53 590.5 602.68 581.8 604.61 572.89 606.82 563.65 608.95 554.16 611.04 544.58 613.57 534.82 616.2 524.94 618.96 515.04 622.29 505.08 625.84 495.1 629.62 485.12 634.01 475.15 638.63 465.22 643.44 455.32 648.77 445.45 654.21 435.65 659.65 425.87 665.38 416.15 670.94 406.51 676.17 396.87 681.37 387.52 685.89 378.47 689.62 369.4 693.02 360.61 695.45 352.09 696.89 343.53 697.77 335.23 697.58 327.19 696.31 319.08 694.43 311.21 691.49 303.57 687.57 295.84 683.09 288.31 677.71 280.99 671.53 273.56 664.92 266.3 657.64 259.22 649.79 252 641.69 244.95 633.15 238.05 624.27 231 615.3 224.11 606.08 217.38 596.71 210.51 587.36 203.81 577.91 197.29 568.42 190.67 559.03 184.27 549.62 178.11 540.24 171.89 530.97 165.96 521.72 160.36 512.5 154.78 503.39 149.57 494.3 144.79 485.22 140.1 476.23 135.88 467.23 132.18 458.22 128.65 449.27 125.66 440.28 123.28 431.27 121.1 422.28 119.55 413.24 118.64 404.16 117.95 395.09 117.91 385.96 118.54 376.8 119.37 367.64 120.81 358.65 122.83 349.86 124.96 341.08 127.61 332.49 130.72 324.13 133.87 315.78 137.43 307.67 141.35 299.82 145.22 291.98 149.4 284.43 153.86 277.17 158.19 269.94 162.76 263.03 167.53 256.44 172.14 249.88 176.94 243.66 181.92 237.79 186.7 231.94 191.67 226.43 196.81 221.27 201.78 216.1 206.94 211.27 212.29 206.78 217.5 202.23 222.93 197.98 228.59 194.03 234.15 189.98 239.95 186.18 246.02 182.63 252.02 178.91 258.3 175.4 264.85 172.09 271.37 168.55 278.18 165.17 285.27 161.96 292.35 158.49 299.71 155.17 307.34 152 314.96 148.58 322.86 145.31 331.01 142.24 339.16 138.96 347.56 135.9 356.2 133.13 364.83 130.22 373.7 127.65 382.8 125.48" stroke-dasharray="9 2" transform="rotate(4.04, 400, 400)" opacity="0.09"></path><path d="M386.04 136.5C394.85 134.35 403.71 132.72 412.6 131.62 421.51 130.62 430.48 130.21 439.48 130.4 448.53 130.77 457.64 131.78 466.8 133.41 476.03 135.27 485.33 137.76 494.69 140.86 504.14 144.2 513.65 148.13 523.21 152.61 532.85 157.32 542.51 162.55 552.17 168.26 561.86 174.14 571.48 180.47 580.98 187.18 590.42 194.03 599.63 201.22 608.53 208.72 617.23 216.3 625.48 224.14 633.17 232.21 640.49 240.32 647.11 248.64 652.91 257.12 658.17 265.61 662.5 274.25 665.82 283.01 668.5 291.77 670.12 300.65 670.64 309.62 670.58 318.58 669.48 327.63 667.42 336.75 664.97 345.87 661.73 355.06 657.83 364.31 653.92 373.56 649.63 382.86 645.12 392.21 641.05 401.55 637.08 410.93 633.33 420.32 630.43 429.71 628.03 438.89 626.17 447.81 625.25 456.73 624.85 465.39 624.91 473.76 625.77 482.11 626.92 490.15 628.22 497.84 630.04 505.49 631.77 512.77 633.29 519.66 634.96 526.47 636.19 532.87 636.87 538.82 637.31 547.39 633.94 562.07 629.93 568.18 626.58 572.05 622.4 575.49 617.46 578.5 612.13 581.55 606.1 584.25 599.44 586.62 592.48 589.14 584.98 591.44 577.03 593.56 568.88 595.96 560.35 598.29 551.54 600.61 542.62 603.35 533.48 606.18 524.19 609.13 514.85 612.59 505.4 616.25 495.9 620.09 486.4 624.48 476.86 629.06 467.33 633.79 457.81 638.97 448.31 644.21 438.85 649.43 429.41 654.91 420 660.19 410.66 665.15 401.31 670.09 392.24 674.38 383.43 677.95 374.61 681.21 366.05 683.58 357.73 685.03 349.39 685.99 341.27 685.96 333.39 684.93 325.46 683.35 317.73 680.78 310.22 677.29 302.62 673.28 295.21 668.42 287.98 662.79 280.65 656.75 273.48 650.05 266.47 642.78 259.35 635.25 252.36 627.26 245.53 618.91 238.58 610.44 231.77 601.7 225.11 592.76 218.35 583.81 211.74 574.74 205.33 565.59 198.84 556.49 192.56 547.36 186.52 538.22 180.45 529.17 174.67 520.12 169.21 511.1 163.79 502.16 158.74 493.24 154.1 484.33 149.57 475.51 145.5 466.68 141.93 457.86 138.53 449.09 135.67 440.3 133.39 431.51 131.32 422.75 129.85 413.96 129.01 405.16 128.38 396.37 128.39 387.56 129.05 378.74 129.9 369.91 131.34 361.29 133.35 352.88 135.47 344.46 138.09 336.27 141.17 328.31 144.28 320.35 147.79 312.64 151.65 305.19 155.47 297.76 159.6 290.6 163.99 283.73 168.27 276.88 172.79 270.33 177.51 264.1 182.06 257.88 186.81 251.98 191.73 246.41 196.46 240.84 201.37 235.59 206.45 230.67 211.35 225.72 216.43 221.07 221.69 216.74 226.8 212.34 232.12 208.21 237.64 204.36 243.05 200.39 248.69 196.65 254.57 193.15 260.37 189.47 266.43 185.98 272.74 182.68 279 179.16 285.54 175.79 292.34 172.58 299.12 169.13 306.16 165.82 313.48 162.66 320.77 159.27 328.34 156.04 336.16 153 343.97 149.76 352.04 146.75 360.35 144.02 368.66 141.16 377.22 138.63 386.03 136.5" stroke-dasharray="1 4" transform="rotate(8.08, 400, 400)" opacity="0.13"></path><path d="M389.83 147.51C398.35 145.4 406.94 143.77 415.57 142.66 424.23 141.63 432.95 141.17 441.73 141.27 450.53 141.54 459.41 142.41 468.35 143.87 477.33 145.54 486.39 147.81 495.49 150.65 504.65 153.72 513.86 157.35 523.08 161.52 532.35 165.89 541.61 170.77 550.82 176.12 560.02 181.64 569.11 187.59 578.03 193.92 586.85 200.38 595.41 207.2 603.61 214.31 611.58 221.52 619.09 229 626.03 236.7 632.59 244.46 638.47 252.43 643.56 260.56 648.14 268.72 651.85 277.03 654.61 285.47 656.81 293.91 658.03 302.47 658.27 311.11 657.99 319.76 656.8 328.49 654.73 337.29 652.36 346.08 649.29 354.94 645.62 363.84 641.98 372.74 638 381.68 633.82 390.64 630.05 399.6 626.34 408.57 622.83 417.54 620.07 426.5 617.74 435.23 615.88 443.71 614.88 452.17 614.31 460.37 614.15 468.27 614.73 476.15 615.57 483.72 616.55 490.94 618.03 498.13 619.46 504.96 620.72 511.4 622.7 520.78 624.34 537.38 623.55 544.57 621.66 551.24 613.63 562.48 607.52 567.14 602.87 570.18 597.54 572.92 591.61 575.4 585.39 578.02 578.64 580.47 571.42 582.77 564.01 585.35 556.2 587.89 548.08 590.42 539.84 593.34 531.34 596.34 522.65 599.44 513.9 603.02 505.01 606.75 496.03 610.64 487.02 615.01 477.95 619.52 468.86 624.14 459.77 629.16 450.66 634.21 441.57 639.2 432.48 644.42 423.41 649.44 414.38 654.14 405.35 658.82 396.55 662.89 388 666.28 379.44 669.4 371.11 671.71 363 673.16 354.86 674.18 346.94 674.29 339.22 673.47 331.45 672.16 323.87 669.94 316.48 666.85 309.02 663.29 301.72 658.92 294.59 653.82 287.37 648.33 280.3 642.19 273.37 635.49 266.34 628.53 259.45 621.11 252.71 613.3 245.85 605.36 239.14 597.12 232.58 588.66 225.93 580.15 219.45 571.49 213.16 562.72 206.81 553.98 200.67 545.17 194.78 536.33 188.87 527.55 183.25 518.76 177.96 509.98 172.71 501.26 167.82 492.55 163.35 483.86 158.99 475.24 155.07 466.62 151.65 458.02 148.4 449.46 145.67 440.9 143.5 432.36 141.54 423.84 140.16 415.31 139.38 406.8 138.83 398.29 138.88 389.79 139.56 381.3 140.42 372.81 141.87 364.54 143.85 356.49 145.95 348.43 148.53 340.61 151.56 333.03 154.62 325.44 158.08 318.11 161.88 311.04 165.64 303.97 169.71 297.18 174.03 290.67 178.25 284.16 182.71 277.95 187.36 272.04 191.87 266.13 196.56 260.51 201.42 255.21 206.11 249.9 210.96 244.88 215.97 240.16 220.82 235.4 225.83 230.92 231.01 226.73 236.04 222.45 241.26 218.43 246.67 214.66 251.95 210.76 257.46 207.08 263.17 203.6 268.8 199.96 274.67 196.49 280.78 193.2 286.82 189.69 293.12 186.34 299.67 183.13 306.17 179.7 312.95 176.41 319.97 173.28 326.97 169.92 334.24 166.73 341.75 163.72 349.25 160.54 357.02 157.59 365.03 154.89 373.03 152.1 381.3 149.62 389.82 147.51" stroke-dasharray="4 1" transform="rotate(12.12, 400, 400)" opacity="0.16"></path><path d="M394.02 158.52C402.25 156.45 410.56 154.84 418.93 153.71 427.31 152.67 435.77 152.16 444.28 152.18 452.82 152.35 461.43 153.09 470.08 154.38 478.78 155.87 487.53 157.92 496.31 160.51 505.12 163.32 513.96 166.66 522.78 170.51 531.62 174.56 540.41 179.09 549.11 184.07 557.77 189.22 566.29 194.78 574.58 200.73 582.75 206.8 590.63 213.22 598.12 219.94 605.37 226.76 612.15 233.85 618.35 241.17 624.19 248.55 629.36 256.14 633.78 263.9 637.75 271.7 640.89 279.65 643.15 287.73 644.92 295.82 645.81 304.03 645.8 312.32 645.37 320.63 644.11 329.01 642.07 337.45 639.79 345.9 636.89 354.39 633.47 362.92 630.09 371.45 626.41 380.01 622.54 388.57 619.06 397.14 615.61 405.7 612.32 414.23 609.71 422.77 607.46 431.06 605.61 439.09 604.53 447.11 603.82 454.86 603.47 462.31 603.79 469.75 604.33 476.87 605.02 483.66 606.18 490.42 607.31 496.83 608.3 502.87 609.97 511.68 611.4 527.31 610.75 534.11 609.21 540.49 602.38 551.39 597.07 556.02 593.01 559.08 588.33 561.89 583.07 564.46 577.55 567.21 571.5 569.8 564.99 572.28 558.29 575.03 551.18 577.74 543.74 580.45 536.17 583.53 528.33 586.67 520.25 589.91 512.12 593.56 503.8 597.35 495.35 601.25 486.88 605.57 478.31 610.01 469.67 614.51 461.03 619.36 452.35 624.2 443.64 628.97 434.95 633.93 426.23 638.68 417.53 643.13 408.83 647.55 400.33 651.4 392.05 654.62 383.75 657.6 375.66 659.83 367.76 661.28 359.84 662.35 352.11 662.57 344.56 661.95 336.97 660.89 329.54 658.98 322.28 656.27 314.96 653.13 307.79 649.22 300.77 644.62 293.66 639.66 286.7 634.07 279.87 627.93 272.96 621.54 266.17 614.68 259.53 607.43 252.79 600.02 246.2 592.3 239.76 584.34 233.25 576.32 226.91 568.1 220.76 559.76 214.57 551.41 208.6 542.97 202.87 534.48 197.15 526.03 191.71 517.54 186.6 509.05 181.54 500.6 176.84 492.15 172.54 483.72 168.36 475.34 164.61 466.96 161.35 458.61 158.25 450.29 155.65 441.99 153.61 433.7 151.76 425.45 150.47 417.2 149.77 408.98 149.27 400.77 149.36 392.57 150.06 384.41 150.94 376.26 152.38 368.32 154.33 360.62 156.4 352.91 158.94 345.44 161.91 338.21 164.92 330.98 168.31 324 172.03 317.28 175.73 310.56 179.72 304.1 183.97 297.92 188.12 291.73 192.51 285.82 197.09 280.2 201.55 274.56 206.18 269.21 210.97 264.15 215.61 259.05 220.41 254.24 225.36 249.7 230.15 245.11 235.1 240.77 240.2 236.7 245.16 232.53 250.29 228.6 255.6 224.89 260.79 221.06 266.17 217.42 271.75 213.97 277.23 210.36 282.94 206.91 288.86 203.63 294.71 200.15 300.8 196.81 307.13 193.61 313.41 190.21 319.93 186.94 326.7 183.83 333.44 180.52 340.43 177.37 347.67 174.42 354.88 171.29 362.36 168.39 370.08 165.76 377.8 163.02 385.77 160.59 394.01 158.53" stroke-dasharray="6 1" transform="rotate(16.16, 400, 400)" opacity="0.20"></path><path d="M398.45 169.54C406.39 167.5 414.41 165.92 422.49 164.79 430.58 163.73 438.74 163.17 446.96 163.12 455.19 163.2 463.49 163.82 471.82 164.95 480.17 166.26 488.57 168.1 496.96 170.46 505.38 173.01 513.79 176.07 522.15 179.61 530.51 183.33 538.78 187.51 546.92 192.13 555.01 196.91 562.91 202.09 570.55 207.63 578.06 213.31 585.24 219.33 592.03 225.64 598.57 232.05 604.63 238.73 610.13 245.65 615.28 252.63 619.8 259.82 623.6 267.19 627 274.6 629.63 282.17 631.46 289.86 632.86 297.58 633.46 305.41 633.26 313.32 632.7 321.26 631.41 329.27 629.43 337.33 627.26 345.4 624.55 353.51 621.36 361.65 618.25 369.8 614.86 377.96 611.29 386.11 608.08 394.27 604.89 402.41 601.82 410.51 599.35 418.61 597.19 426.47 595.35 434.06 594.21 441.65 593.38 448.97 592.85 455.99 592.93 463 593.22 469.71 593.63 476.1 594.9 485.47 597.37 502.47 598.11 510.07 598.5 517.26 596.63 529.87 594.17 535.34 590.77 540.54 580.58 549.72 573.86 553.84 568.98 556.7 563.59 559.44 557.74 562.08 551.72 564.98 545.29 567.85 538.51 570.72 531.6 573.92 524.4 577.18 516.95 580.51 509.42 584.22 501.69 588.02 493.8 591.91 485.87 596.18 477.81 600.51 469.65 604.88 461.49 609.55 453.25 614.19 444.96 618.72 436.67 623.43 428.34 627.92 419.98 632.11 411.63 636.28 403.44 639.92 395.44 642.96 387.43 645.81 379.59 647.96 371.92 649.39 364.23 650.49 356.7 650.81 349.33 650.36 341.93 649.52 334.67 647.9 327.55 645.53 320.39 642.78 313.36 639.31 306.46 635.19 299.5 630.73 292.66 625.67 285.95 620.08 279.17 614.24 272.51 607.94 266 601.25 259.41 594.39 252.96 587.21 246.66 579.77 240.32 572.24 234.14 564.51 228.16 556.62 222.15 548.71 216.36 540.68 210.82 532.58 205.3 524.5 200.06 516.36 195.14 508.2 190.29 500.07 185.79 491.93 181.68 483.79 177.69 475.69 174.12 467.59 171.02 459.52 168.09 451.48 165.64 443.45 163.71 435.46 161.98 427.48 160.79 419.52 160.16 411.61 159.72 403.7 159.86 395.82 160.57 387.99 161.45 380.16 162.88 372.56 164.79 365.19 166.83 357.82 169.32 350.68 172.21 343.79 175.16 336.9 178.47 330.25 182.11 323.85 185.73 317.45 189.64 311.3 193.79 305.41 197.88 299.52 202.19 293.88 206.69 288.52 211.08 283.14 215.65 278.01 220.37 273.16 224.96 268.27 229.7 263.63 234.58 259.25 239.31 254.8 244.2 250.59 249.23 246.62 254.13 242.55 259.19 238.69 264.4 235.04 269.5 231.26 274.78 227.66 280.23 224.24 285.59 220.67 291.15 217.24 296.91 213.97 302.6 210.51 308.51 207.19 314.63 204.02 320.71 200.65 327.01 197.42 333.55 194.34 340.04 191.08 346.78 187.98 353.76 185.07 360.72 182.02 367.92 179.18 375.37 176.6 382.8 173.93 390.49 171.56 398.44 169.54" stroke-dasharray="7 8" transform="rotate(20.200000000000003, 400, 400)" opacity="0.24"></path><path d="M402.94 180.55C410.58 178.56 418.3 177 426.07 175.87 433.85 174.81 441.69 174.22 449.58 174.09 457.47 174.09 465.41 174.59 473.37 175.58 481.35 176.72 489.34 178.36 497.3 180.49 505.27 182.79 513.21 185.57 521.06 188.81 528.89 192.21 536.61 196.06 544.17 200.31 551.64 204.72 558.91 209.52 565.89 214.66 572.73 219.94 579.23 225.55 585.32 231.44 591.17 237.44 596.55 243.7 601.38 250.19 605.9 256.76 609.81 263.54 613.05 270.49 615.93 277.49 618.11 284.64 619.56 291.93 620.65 299.25 621.01 306.68 620.66 314.19 620.02 321.73 618.73 329.34 616.82 337 614.78 344.67 612.26 352.39 609.31 360.12 606.46 367.86 603.35 375.62 600.07 383.35 597.12 391.09 594.18 398.81 591.31 406.48 588.99 414.15 586.91 421.58 585.1 428.75 583.91 435.91 582.98 442.82 582.3 449.44 582.17 456.04 582.21 462.36 582.37 468.37 583.22 477.21 584.96 493.27 585.45 500.47 585.7 507.33 584.01 519.49 581.85 524.84 578.91 530 570 539.29 564.08 543.56 559.77 546.53 554.98 549.39 549.74 552.18 544.35 555.2 538.55 558.21 532.4 561.21 526.14 564.51 519.56 567.86 512.71 571.25 505.79 574.98 498.65 578.78 491.31 582.63 483.93 586.81 476.4 591.03 468.74 595.25 461.07 599.74 453.28 604.16 445.42 608.47 437.56 612.92 429.62 617.16 421.64 621.1 413.65 625.02 405.8 628.45 398.09 631.32 390.38 634.02 382.81 636.09 375.39 637.49 367.94 638.61 360.63 639.01 353.46 638.71 346.26 638.07 339.19 636.71 332.24 634.66 325.25 632.27 318.38 629.21 311.63 625.53 304.83 621.55 298.15 617 291.58 611.94 284.96 606.64 278.46 600.89 272.1 594.75 265.68 588.44 259.4 581.8 253.28 574.89 247.12 567.88 241.13 560.65 235.34 553.25 229.55 545.81 223.97 538.23 218.64 530.55 213.34 522.88 208.32 515.13 203.61 507.34 198.97 499.57 194.69 491.77 190.78 483.97 186.99 476.19 183.62 468.41 180.69 460.65 177.92 452.91 175.62 445.19 173.82 437.5 172.21 429.82 171.11 422.17 170.55 414.57 170.18 406.98 170.35 399.42 171.07 391.92 171.96 384.41 173.37 377.14 175.24 370.1 177.23 363.06 179.65 356.24 182.47 349.67 185.34 343.09 188.57 336.75 192.11 330.65 195.64 324.55 199.46 318.68 203.52 313.07 207.52 307.44 211.74 302.06 216.15 296.93 220.46 291.77 224.95 286.85 229.59 282.19 234.12 277.47 238.79 272.99 243.6 268.75 248.28 264.43 253.1 260.33 258.06 256.44 262.89 252.46 267.87 248.67 273 245.07 278.01 241.35 283.19 237.79 288.54 234.4 293.79 230.86 299.22 227.45 304.84 224.2 310.38 220.78 316.12 217.49 322.06 214.34 327.95 211.01 334.06 207.82 340.37 204.78 346.65 201.58 353.16 198.55 359.89 195.7 366.6 192.72 373.54 189.95 380.71 187.43 387.87 184.84 395.28 182.53 402.93 180.55" stroke-dasharray="3 3" transform="rotate(24.24, 400, 400)" opacity="0.28"></path><path d="M407.31 191.56C414.65 189.63 422.05 188.1 429.49 186.98 436.94 185.91 444.43 185.29 451.95 185.1 459.47 185.03 467.03 185.42 474.57 186.27 482.13 187.25 489.67 188.71 497.17 190.61 504.66 192.67 512.08 195.19 519.39 198.13 526.67 201.22 533.8 204.73 540.75 208.64 547.6 212.68 554.23 217.09 560.55 221.85 566.73 226.72 572.56 231.91 577.98 237.39 583.18 242.96 587.91 248.79 592.12 254.86 596.05 260.99 599.4 267.34 602.14 273.85 604.57 280.43 606.36 287.16 607.48 294.02 608.31 300.91 608.49 307.92 608.02 315.01 607.33 322.13 606.06 329.33 604.25 336.57 602.35 343.83 600.02 351.13 597.32 358.44 594.71 365.76 591.87 373.09 588.88 380.41 586.18 387.72 583.47 395.01 580.8 402.25 578.62 409.49 576.63 416.5 574.86 423.26 573.64 430.02 572.62 436.52 571.81 442.76 571.41 451.96 571.7 468.95 572.09 476.71 572.72 484.16 573.03 497.6 572.42 503.62 571.37 509.4 566.85 519.8 563.3 524.52 559.02 529.22 547.86 538.18 541.05 542.57 536.23 545.7 531.03 548.81 525.47 551.91 519.8 555.29 513.82 558.69 507.56 562.12 501.23 565.84 494.66 569.61 487.87 573.41 481.05 577.48 474.04 581.57 466.88 585.63 459.7 589.92 452.39 594.13 444.97 598.2 437.55 602.4 430.03 606.39 422.43 610.08 414.83 613.77 407.33 616.98 399.94 619.69 392.55 622.24 385.27 624.22 378.11 625.58 370.93 626.71 363.87 627.18 356.92 627.01 349.95 626.54 343.08 625.42 336.33 623.65 329.54 621.59 322.86 618.91 316.28 615.65 309.67 612.12 303.17 608.06 296.78 603.5 290.35 598.72 284.03 593.5 277.85 587.9 271.63 582.14 265.55 576.05 259.63 569.67 253.69 563.19 247.92 556.48 242.34 549.58 236.78 542.63 231.43 535.52 226.33 528.3 221.27 521.06 216.48 513.74 212 506.36 207.6 498.98 203.54 491.56 199.85 484.13 196.27 476.71 193.1 469.28 190.35 461.86 187.75 454.46 185.61 447.06 183.94 439.7 182.45 432.35 181.45 425.03 180.96 417.75 180.65 410.48 180.85 403.25 181.58 396.08 182.47 388.91 183.84 381.96 185.67 375.24 187.61 368.52 189.96 362.02 192.69 355.75 195.48 349.47 198.61 343.42 202.04 337.61 205.47 331.78 209.18 326.18 213.13 320.82 217.04 315.44 221.16 310.28 225.46 305.36 229.69 300.41 234.09 295.68 238.64 291.18 243.09 286.63 247.68 282.29 252.41 278.16 257.02 273.96 261.77 269.96 266.65 266.16 271.41 262.26 276.32 258.53 281.35 254.98 286.29 251.31 291.38 247.79 296.61 244.43 301.76 240.92 307.07 237.55 312.55 234.32 317.95 230.94 323.54 227.69 329.31 224.57 335.03 221.3 340.95 218.16 347.06 215.17 353.13 212.04 359.41 209.07 365.9 206.29 372.37 203.39 379.05 200.7 385.95 198.25 392.84 195.73 399.96 193.49 407.3 191.57" stroke-dasharray="9 6" transform="rotate(28.28, 400, 400)" opacity="0.32"></path><path d="M411.39 202.58C418.41 200.7 425.47 199.21 432.56 198.1 439.65 197.03 446.77 196.38 453.9 196.15 461.03 196 468.16 196.3 475.27 197.01 482.37 197.85 489.44 199.13 496.43 200.82 503.41 202.66 510.29 204.91 517.05 207.57 523.75 210.37 530.29 213.55 536.62 217.11 542.85 220.79 548.84 224.83 554.52 229.19 560.06 233.67 565.24 238.45 570.02 243.5 574.61 248.65 578.74 254.05 582.38 259.67 585.77 265.37 588.63 271.27 590.93 277.35 592.96 283.48 594.41 289.77 595.26 296.19 595.87 302.64 595.9 309.22 595.37 315.87 594.66 322.56 593.44 329.32 591.74 336.13 589.99 342.96 587.85 349.83 585.39 356.71 583.02 363.61 580.44 370.51 577.71 377.39 575.26 384.28 572.77 391.15 570.3 397.96 568.26 404.78 566.36 411.37 564.64 417.74 563.39 424.1 562.31 430.22 561.39 436.09 560.73 444.77 560.36 460.82 560.39 468.18 560.68 475.27 560.53 488.17 559.83 494.01 556.74 504.83 547.74 519.53 543.09 524.06 537.83 528.73 525.12 538.07 517.77 542.83 512.67 546.24 507.25 549.67 501.54 553.1 495.78 556.8 489.75 560.51 483.5 564.22 477.22 568.18 470.73 572.12 464.07 576.01 457.39 580.09 450.56 584.08 443.59 587.93 436.62 591.87 429.52 595.61 422.33 599.07 415.13 602.52 407.99 605.53 400.95 608.06 393.9 610.48 386.93 612.35 380.05 613.68 373.17 614.79 366.37 615.32 359.67 615.26 352.95 614.94 346.32 614.02 339.79 612.52 333.23 610.76 326.77 608.43 320.4 605.56 314.01 602.45 307.72 598.84 301.54 594.76 295.33 590.48 289.23 585.78 283.26 580.71 277.27 575.48 271.42 569.92 265.73 564.08 260.03 558.14 254.5 551.95 249.17 545.56 243.86 539.12 238.76 532.5 233.91 525.76 229.11 518.99 224.58 512.12 220.34 505.17 216.19 498.22 212.37 491.21 208.89 484.17 205.54 477.14 202.57 470.09 200.01 463.04 197.59 456 195.6 448.96 194.07 441.95 192.7 434.95 191.8 427.97 191.37 421.03 191.12 414.09 191.35 407.2 192.08 400.36 192.97 393.52 194.31 386.9 196.08 380.49 197.96 374.08 200.23 367.88 202.87 361.91 205.56 355.92 208.58 350.15 211.89 344.6 215.22 339.04 218.81 333.69 222.63 328.56 226.43 323.4 230.43 318.46 234.62 313.73 238.74 308.97 243.04 304.41 247.48 300.06 251.84 295.66 256.34 291.45 260.97 287.43 265.51 283.35 270.17 279.44 274.96 275.71 279.64 271.88 284.46 268.22 289.4 264.72 294.25 261.1 299.24 257.63 304.36 254.3 309.41 250.85 314.6 247.52 319.94 244.33 325.22 240.99 330.66 237.78 336.26 234.71 341.82 231.5 347.55 228.42 353.46 225.5 359.33 222.44 365.4 219.55 371.65 216.84 377.88 214.03 384.3 211.42 390.93 209.05 397.54 206.62 404.36 204.45 411.38 202.58" stroke-dasharray="0 5" transform="rotate(32.32, 400, 400)" opacity="0.35"></path><path d="M415.02 213.59C421.7 211.78 428.41 210.32 435.13 209.23 441.85 208.18 448.57 207.51 455.28 207.23 461.98 207.03 468.67 207.23 475.31 207.82 481.94 208.52 488.51 209.63 494.98 211.13 501.43 212.75 507.76 214.76 513.94 217.14 520.06 219.65 526.01 222.53 531.73 225.75 537.35 229.09 542.72 232.76 547.78 236.73 552.7 240.81 557.28 245.19 561.47 249.82 565.48 254.54 569.07 259.51 572.19 264.7 575.1 269.95 577.52 275.41 579.43 281.04 581.12 286.72 582.28 292.56 582.92 298.53 583.36 304.53 583.28 310.65 582.71 316.87 582.01 323.1 580.85 329.42 579.28 335.79 577.68 342.18 575.74 348.61 573.51 355.05 571.38 361.51 569.05 367.98 566.58 374.44 564.35 380.9 562.07 387.34 559.79 393.73 557.89 400.12 556.09 406.32 554.41 412.3 552.59 421.15 550.14 437.73 549.41 445.44 549.17 452.91 548.85 466.68 548.54 472.99 547.27 484.72 542.48 500.6 539.6 505.4 536.22 510.24 527.38 519.62 521.95 524.25 516.02 529.13 502.36 539.08 494.73 544.2 489.49 547.83 483.99 551.47 478.26 555.08 472.49 558.89 466.51 562.67 460.35 566.38 454.16 570.26 447.8 574.02 441.29 577.64 434.77 581.34 428.12 584.83 421.33 588.06 414.55 591.27 407.8 594.08 401.12 596.45 394.43 598.72 387.79 600.49 381.23 601.77 374.66 602.87 368.16 603.43 361.73 603.46 355.29 603.27 348.93 602.54 342.65 601.27 336.36 599.78 330.14 597.77 324.02 595.26 317.88 592.54 311.83 589.35 305.89 585.73 299.93 581.92 294.08 577.71 288.36 573.15 282.63 568.44 277.04 563.41 271.6 558.09 266.18 552.68 260.92 547.01 255.85 541.15 250.82 535.21 246 529.1 241.41 522.85 236.89 516.57 232.62 510.17 228.64 503.68 224.75 497.18 221.17 490.6 217.93 483.99 214.81 477.37 212.05 470.72 209.67 464.07 207.44 457.41 205.61 450.75 204.21 444.11 202.96 437.47 202.15 430.85 201.8 424.26 201.6 417.68 201.86 411.13 202.59 404.63 203.46 398.13 204.77 391.83 206.48 385.74 208.29 379.64 210.47 373.74 213 368.05 215.59 362.35 218.49 356.84 221.68 351.55 224.88 346.23 228.34 341.12 232.03 336.21 235.7 331.27 239.57 326.52 243.63 321.98 247.63 317.39 251.8 312.99 256.13 308.79 260.38 304.52 264.77 300.44 269.29 296.53 273.73 292.55 278.29 288.73 282.97 285.07 287.56 281.33 292.28 277.73 297.12 274.28 301.87 270.73 306.75 267.31 311.75 264.03 316.69 260.63 321.76 257.35 326.96 254.2 332.1 250.93 337.39 247.78 342.82 244.76 348.22 241.62 353.76 238.62 359.47 235.76 365.14 232.8 370.98 229.99 376.99 227.36 382.98 224.64 389.14 222.13 395.48 219.84 401.81 217.49 408.32 215.4 415.01 213.59" stroke-dasharray="1 1" transform="rotate(36.36, 400, 400)" opacity="0.39"></path><path d="M418.05 224.61C424.38 222.86 430.72 221.45 437.05 220.38 443.37 219.34 449.68 218.66 455.95 218.34 468.48 217.91 480.82 219 492.73 221.53 504.52 224.47 515.73 228.87 526.07 234.56 536.05 240.67 544.91 248.01 552.35 256.37 559.18 265.06 564.36 274.66 567.7 284.96 570.33 295.47 571.12 306.58 570.07 318.07 568.65 329.66 565.78 341.57 561.69 353.57 559.79 359.59 557.7 365.63 555.47 371.65 553.46 377.68 551.38 383.7 549.29 389.68 546.66 398.56 542.37 415.38 540.72 423.28 539.59 433.68 538.61 443.27 537.58 452.01 537.4 460.79 536.67 468.79 535.16 476.02 533.86 483.43 531.4 490.23 527.67 496.48 523.75 503.14 518.42 509.47 511.75 515.53 504.81 522.24 496.58 528.88 487.22 535.4 477.67 542.68 467.13 549.86 455.77 556.76 450.07 560.41 444.18 563.95 438.13 567.34 432.06 570.79 425.85 574.05 419.49 577.04 413.13 580.03 406.79 582.64 400.47 584.85 394.16 586.97 387.89 588.64 381.66 589.86 369.2 591.84 356.92 591.84 344.94 589.92 332.93 587.22 321.19 582.64 309.86 576.41 298.52 569.52 287.61 561.18 277.29 551.69 267.05 541.8 257.5 530.99 248.85 519.53 240.45 507.92 233.08 495.82 226.97 483.48 221.31 471.12 217.05 458.58 214.36 446.06 213.24 439.81 212.52 433.56 212.23 427.34 212.09 421.12 212.37 414.92 213.1 408.76 213.95 402.61 215.21 396.64 216.85 390.85 218.59 385.07 220.68 379.46 223.1 374.05 228.1 363.19 234.25 353.05 241.32 343.67 248.35 334.19 256.15 325.38 264.56 317.28 272.74 308.99 281.48 301.29 290.66 294.21 299.55 286.82 308.93 279.93 318.72 273.58 328.28 266.81 338.35 260.5 348.9 254.72 359.3 248.51 370.28 242.83 381.8 237.84 387.54 235.23 393.44 232.81 399.48 230.61 405.51 228.36 411.7 226.35 418.04 224.61" stroke-dasharray="3 6" transform="rotate(40.400000000000006, 400, 400)" opacity="0.43"></path><path d="M420.36 235.62C432.3 232.28 444.17 230.24 455.81 229.49 467.44 228.97 478.78 229.84 489.63 232.03 500.35 234.58 510.44 238.47 519.63 243.56 528.5 249.01 536.28 255.61 542.71 263.18 548.62 271.04 553.02 279.78 555.77 289.19 557.95 298.8 558.51 308.99 557.47 319.57 556.17 330.25 553.59 341.25 549.94 352.38 546.68 363.54 542.88 374.79 538.78 385.94 535.8 397.09 533 407.59 530.46 417.38 529.11 427.15 527.83 436.23 526.48 444.57 525.91 452.95 524.86 460.68 523.17 467.74 521.73 474.99 519.29 481.73 515.78 487.99 512.17 494.63 507.33 500.98 501.29 507.08 495.04 513.74 487.62 520.3 479.13 526.7 470.49 533.72 460.88 540.59 450.45 547.12 439.95 554.09 428.72 560.5 416.87 566.03 405.02 571.53 393.15 575.54 381.41 577.95 369.68 579.89 358.07 580.03 346.71 578.45 335.36 576.22 324.25 572.28 313.52 566.81 302.82 560.77 292.53 553.36 282.82 544.85 273.23 535.98 264.31 526.18 256.25 515.73 248.46 505.11 241.65 493.98 236.03 482.55 230.83 471.09 226.95 459.41 224.54 447.69 222.66 435.98 222.31 424.25 223.6 412.64 225.38 401.03 228.64 390.07 233.16 379.81 237.92 369.51 243.77 359.85 250.5 350.88 257.23 341.81 264.72 333.35 272.79 325.52 280.69 317.5 289.14 310.02 298.01 303.11 306.66 295.91 315.75 289.18 325.23 282.95 334.52 276.36 344.26 270.2 354.42 264.57 364.45 258.57 374.98 253.1 385.98 248.29 396.93 243.23 408.4 238.94 420.34 235.62" stroke-dasharray="5 7" transform="rotate(44.44, 400, 400)" opacity="0.47"></path><path d="M421.85 246.63C433.04 243.45 444.07 241.47 454.8 240.68 465.5 240.07 475.85 240.75 485.65 242.63 495.33 244.82 504.34 248.23 512.46 252.75 520.29 257.58 527.07 263.47 532.6 270.28 537.7 277.33 541.44 285.22 543.69 293.76 545.52 302.47 545.92 311.76 544.92 321.44 543.76 331.21 541.48 341.31 538.24 351.56 535.39 361.85 532 372.25 528.28 382.61 525.51 392.96 522.81 402.76 520.26 411.94 518.73 421.12 517.2 429.7 515.58 437.65 514.66 445.66 513.33 453.11 511.44 460 509.84 467.07 507.4 473.71 504.03 479.94 500.65 486.51 496.19 492.83 490.68 498.9 485.03 505.45 478.31 511.86 470.61 518.08 462.79 524.81 454.05 531.34 444.5 537.48 434.9 543.98 424.55 549.92 413.57 555.02 402.6 560.09 391.54 563.79 380.56 566.05 369.6 567.92 358.72 568.19 348.05 566.9 337.4 565.07 326.97 561.7 316.91 556.93 306.9 551.68 297.29 545.16 288.25 537.58 279.34 529.68 271.08 520.88 263.64 511.42 256.47 501.79 250.23 491.63 245.11 481.13 240.38 470.58 236.87 459.78 234.73 448.89 233.07 437.99 232.83 427.03 234.11 416.14 235.83 405.25 238.92 394.93 243.19 385.22 247.69 375.48 253.22 366.31 259.59 357.75 265.98 349.09 273.11 340.97 280.81 333.42 288.39 325.7 296.5 318.46 305.02 311.73 313.36 304.75 322.13 298.2 331.25 292.13 340.22 285.75 349.59 279.78 359.32 274.33 368.95 268.56 379.01 263.31 389.44 258.7 399.84 253.89 410.66 249.8 421.85 246.63" stroke-dasharray="2 6" transform="rotate(48.48, 400, 400)" opacity="0.51"></path><path d="M422.48 257.65C432.88 254.62 443.05 252.72 452.86 251.9 462.64 251.24 472.01 251.74 480.8 253.34 489.47 255.19 497.46 258.16 504.58 262.14 511.46 266.38 517.34 271.61 522.08 277.67 526.47 283.96 529.64 291.02 531.5 298.71 533.04 306.55 533.34 314.95 532.42 323.74 531.43 332.62 529.45 341.83 526.61 351.23 524.13 360.65 521.13 370.22 517.77 379.79 515.21 389.36 512.63 398.48 510.11 407.06 508.44 415.66 506.72 423.75 504.88 431.32 503.66 438.94 502.07 446.11 500 452.81 498.24 459.67 495.76 466.17 492.49 472.32 489.27 478.77 485.12 484.99 480.05 490.96 474.9 497.33 468.8 503.55 461.8 509.53 454.72 515.93 446.78 522.09 438.07 527.83 429.32 533.86 419.84 539.33 409.74 544 399.64 548.65 389.42 552.05 379.24 554.15 369.08 555.94 358.97 556.3 349.04 555.26 339.15 553.79 329.46 550.93 320.11 546.8 310.84 542.27 301.96 536.56 293.61 529.87 285.42 522.9 277.84 515.06 271.05 506.56 264.51 497.91 258.84 488.71 254.22 479.15 249.96 469.52 246.83 459.61 244.95 449.55 243.51 439.49 243.36 429.32 244.61 419.17 246.27 409.01 249.18 399.34 253.18 390.2 257.4 381.03 262.6 372.35 268.58 364.2 274.62 355.97 281.35 348.22 288.64 340.96 295.85 333.55 303.57 326.58 311.69 320.07 319.68 313.34 328.07 307 336.78 301.12 345.37 294.97 354.32 289.23 363.58 283.98 372.76 278.47 382.29 273.46 392.12 269.08 401.93 264.52 412.07 260.65 422.48 257.65" stroke-dasharray="1 9" transform="rotate(52.52, 400, 400)" opacity="0.54"></path><path d="M422.21 268.66C431.8 265.81 441.11 263.98 450.01 263.16 458.88 262.45 467.29 262.79 475.11 264.14 482.83 265.69 489.87 268.25 496.08 271.73 502.08 275.42 507.17 280.01 511.22 285.38 515 290.93 517.7 297.21 519.25 304.08 520.58 311.08 520.83 318.61 520.02 326.54 519.19 334.54 517.5 342.88 515.05 351.43 512.91 360.01 510.28 368.76 507.26 377.57 504.92 386.37 502.47 394.81 500 402.82 498.25 410.83 496.38 418.45 494.37 425.62 492.91 432.85 491.1 439.71 488.89 446.18 486.96 452.8 484.43 459.12 481.24 465.13 478.13 471.4 474.22 477.45 469.53 483.25 464.8 489.39 459.24 495.35 452.87 501.05 446.45 507.08 439.25 512.84 431.33 518.17 423.38 523.72 414.75 528.73 405.52 532.99 396.28 537.23 386.92 540.33 377.56 542.27 368.23 543.96 358.92 544.37 349.78 543.56 340.69 542.39 331.78 539.98 323.2 536.43 314.71 532.55 306.58 527.6 298.97 521.74 291.51 515.63 284.64 508.71 278.5 501.15 272.6 493.45 267.51 485.19 263.39 476.55 259.59 467.85 256.82 458.83 255.2 449.62 253.96 440.41 253.9 431.04 255.12 421.63 256.69 412.22 259.42 403.21 263.14 394.65 267.08 386.06 271.91 377.89 277.48 370.18 283.13 362.4 289.44 355.03 296.27 348.09 303.07 341.03 310.36 334.35 318.02 328.09 325.6 321.64 333.55 315.56 341.79 309.91 349.95 304.03 358.43 298.55 367.16 293.53 375.84 288.31 384.81 283.57 394 279.42 403.18 275.13 412.61 271.5 422.21 268.66" stroke-dasharray="7 8" transform="rotate(56.56, 400, 400)" opacity="0.58"></path><path d="M421.05 279.67C429.82 277.01 438.26 275.27 446.26 274.45 454.24 273.71 461.74 273.93 468.65 275.05 475.47 276.32 481.63 278.5 487.01 281.52 494.44 286.7 504.51 301.04 506.97 309.89 508.14 316.08 508.38 322.78 507.7 329.88 507.05 337.03 505.64 344.52 503.54 352.25 501.73 360 499.45 367.95 496.76 376.01 494.63 384.06 492.33 391.83 489.94 399.25 488.14 406.69 486.18 413.81 484.06 420.58 482.4 427.4 480.43 433.92 478.1 440.12 476.04 446.45 473.46 452.53 470.33 458.34 467.3 464.36 463.6 470.18 459.23 475.76 454.86 481.61 449.76 487.26 443.97 492.63 438.15 498.26 431.62 503.59 424.46 508.5 417.26 513.57 409.45 518.12 401.07 521.98 392.7 525.81 384.19 528.62 375.68 530.39 367.19 531.96 358.72 532.42 350.41 531.78 342.14 530.87 334.05 528.86 326.27 525.83 318.58 522.54 311.23 518.28 304.38 513.19 297.67 507.9 291.51 501.84 286.03 495.17 280.77 488.37 276.25 481.04 272.62 473.3 269.27 465.51 266.85 457.37 265.48 449.02 264.43 440.66 264.45 432.1 265.63 423.45 267.11 414.81 269.64 406.47 273.08 398.51 276.71 390.53 281.17 382.89 286.31 375.64 291.54 368.34 297.39 361.37 303.73 354.79 310.08 348.11 316.88 341.76 324.04 335.79 331.14 329.67 338.6 323.88 346.32 318.49 353.99 312.93 361.94 307.73 370.09 302.98 378.21 298.07 386.57 293.62 395.08 289.73 403.59 285.72 412.28 282.33 421.05 279.67" stroke-dasharray="6 5" transform="rotate(60.599999999999994, 400, 400)" opacity="0.62"></path><path d="M419.05 290.69C426.99 288.21 434.57 286.58 441.7 285.77 448.81 285.03 455.44 285.14 461.5 286.05 470.17 288 483.92 295.95 488.77 301.77 492.59 308.4 495.91 324.54 495.5 333.78 495.01 340.12 493.87 346.8 492.1 353.73 490.59 360.68 488.62 367.85 486.25 375.16 484.33 382.47 482.19 389.57 479.92 396.41 478.11 403.27 476.12 409.88 473.94 416.21 472.15 422.59 470.07 428.74 467.66 434.63 465.5 440.62 462.9 446.4 459.83 451.94 456.87 457.65 453.35 463.18 449.27 468.46 445.21 473.96 440.53 479.25 435.26 484.25 429.98 489.45 424.09 494.34 417.63 498.81 411.15 503.41 404.12 507.51 396.59 510.96 389.05 514.4 381.4 516.92 373.74 518.52 366.11 519.98 358.5 520.44 351.03 519.95 343.61 519.25 336.36 517.59 329.39 515.03 322.52 512.26 315.98 508.64 309.89 504.26 303.93 499.71 298.48 494.46 293.66 488.63 289.03 482.7 285.08 476.24 281.92 469.39 279 462.48 276.93 455.23 275.79 447.72 274.92 440.2 275.01 432.46 276.13 424.59 277.52 416.71 279.84 409.07 282.98 401.73 286.3 394.38 290.37 387.3 295.07 380.54 299.85 373.74 305.21 367.22 311.04 361.04 316.88 354.77 323.16 348.79 329.76 343.16 336.34 337.4 343.25 331.95 350.39 326.87 357.51 321.65 364.87 316.78 372.39 312.33 379.9 307.76 387.6 303.61 395.4 300 403.2 296.29 411.11 293.15 419.05 290.69" stroke-dasharray="0 8" transform="rotate(64.64, 400, 400)" opacity="0.66"></path><path d="M416.3 301.7C423.4 299.43 430.13 297.92 436.42 297.13 445.59 296.41 461.3 298.73 467.63 301.7 473.17 305.47 480.66 316.16 482.54 322.89 483.65 330.18 482.63 346.78 480.73 355.89 479.49 362.05 477.82 368.46 475.74 375.04 474.03 381.61 472.07 388.05 469.93 394.3 468.16 400.55 466.18 406.64 464.01 412.5 462.14 418.41 460 424.14 457.57 429.65 455.35 435.25 452.75 440.68 449.77 445.89 446.89 451.23 443.55 456.4 439.74 461.33 435.96 466.43 431.67 471.31 426.89 475.9 422.1 480.64 416.8 485.08 411.01 489.11 405.22 493.23 398.94 496.88 392.24 499.95 385.53 503 378.72 505.24 371.92 506.67 365.14 507.99 358.39 508.45 351.78 508.08 345.21 507.55 338.81 506.19 332.68 504.05 326.63 501.74 320.88 498.68 315.56 494.95 310.35 491.08 305.6 486.58 301.42 481.54 297.41 476.42 294 470.81 291.3 464.81 288.81 458.76 287.06 452.36 286.13 445.69 285.43 439.01 285.58 432.08 286.64 424.99 287.92 417.9 290.03 410.98 292.87 404.29 295.86 397.59 299.53 391.09 303.76 384.86 308.08 378.6 312.93 372.57 318.21 366.82 323.51 361.01 329.22 355.45 335.23 350.2 341.24 344.85 347.54 339.78 354.05 335.05 360.56 330.21 367.28 325.7 374.13 321.58 380.98 317.37 387.97 313.55 395.02 310.23 402.07 306.84 409.2 303.97 416.3 301.7" stroke-dasharray="1 3" transform="rotate(68.68, 400, 400)" opacity="0.70"></path><path d="M412.89 312.71C425.42 308.61 436.46 307.24 445.59 308.34 454.56 309.68 461.44 313.53 465.87 319.47 470.11 325.66 471.99 333.79 471.45 343.36 471.18 353.01 469.07 363.94 465.24 375.65 462.51 387.35 458.74 398.75 454.24 409.44 450.73 420.27 446.04 430.63 440.19 440.16 434.73 450.08 427.64 459.39 418.98 467.59 410.36 476.19 400 483.58 388.2 488.93 376.39 494.26 364.34 496.62 352.78 496.17 341.38 495.28 330.69 491.5 321.44 485.3 312.59 478.71 305.48 469.93 300.78 459.58 296.76 449.09 295.37 437.26 297.14 424.67 299.64 412.06 304.98 399.89 312.41 388.59 320.16 377.19 329.75 366.5 340.48 356.91 351.27 347.06 363.1 338.17 375.36 330.73 387.64 323.02 400.37 316.8 412.89 312.71" stroke-dasharray="6 11" transform="rotate(72.72, 400, 400)" opacity="0.73"></path><path d="M408.97 323.73C419.83 320.06 429.32 318.78 437.1 319.63 444.78 320.64 450.65 323.81 454.45 328.8 458.16 333.95 459.91 340.83 459.63 349.02 459.6 357.26 457.96 366.71 454.73 376.98 452.34 387.24 448.87 397.37 444.65 406.98 441.17 416.7 436.63 426.06 431.11 434.71 425.93 443.64 419.41 451.99 411.66 459.28 403.96 466.86 394.86 473.3 384.62 477.92 374.38 482.52 364.02 484.57 354.16 484.24 344.43 483.6 335.36 480.51 327.58 475.35 320.14 469.9 314.21 462.53 310.37 453.72 307.05 444.8 306 434.62 307.65 423.61 309.87 412.6 314.53 401.83 321.01 391.73 327.77 381.57 336.16 371.96 345.55 363.3 355.04 354.46 365.45 346.47 376.2 339.79 386.99 332.92 398.11 327.37 408.97 323.73" stroke-dasharray="2 7" transform="rotate(76.76, 400, 400)" opacity="0.77"></path><path d="M404.7 334.74C413.91 331.54 421.92 330.36 428.45 331 437.41 333.02 447.19 345.48 447.95 355.22 448.12 362.14 446.88 370.16 444.23 378.98 442.16 387.81 439.06 396.63 435.21 405.08 431.89 413.6 427.62 421.86 422.54 429.51 417.73 437.34 411.84 444.65 405.01 450.99 398.24 457.5 390.38 463 381.67 466.91 372.95 470.8 364.24 472.54 356.02 472.3 347.9 471.85 340.4 469.37 334.04 465.14 327.93 460.72 323.12 454.65 320.07 447.3 317.42 439.87 316.66 431.27 318.15 421.86 320.09 412.44 324.07 403.13 329.59 394.31 335.34 385.45 342.49 377.02 350.51 369.38 358.64 361.63 367.55 354.62 376.75 348.75 385.99 342.76 395.48 337.93 404.7 334.74" stroke-dasharray="0 6" transform="rotate(80.80000000000001, 400, 400)" opacity="0.81"></path><path d="M400.23 345.76C411.12 342.52 427.2 343.99 432.03 348.31 435.55 353.99 436.29 370.91 433.72 381.61 432 388.99 429.3 396.45 425.91 403.65 422.88 410.9 419.02 417.96 414.49 424.51 410.15 431.16 404.98 437.35 399.11 442.69 393.28 448.13 386.66 452.69 379.44 455.89 372.22 459.09 365.1 460.53 358.46 460.34 348.88 459.06 334.11 448.77 329.9 440.36 327.85 434.33 327.34 427.28 328.66 419.46 330.29 411.65 333.59 403.82 338.15 396.36 342.89 388.87 348.79 381.7 355.42 375.18 362.13 368.59 369.52 362.62 377.13 357.62 384.78 352.55 392.63 348.46 400.23 345.76" stroke-dasharray="11 7" transform="rotate(84.84, 400, 400)" opacity="0.85"></path><path d="M395.76 356.77C407.78 352.35 416.6 353.32 421.17 358.45 425.83 363.67 426.71 372.9 423.21 384.78 420.73 396.65 414.79 409.03 406.94 419.66 399.6 430.53 389.54 439.84 378.03 444.88 366.51 449.89 355.76 449.25 348.05 444.1 340.78 438.67 337.15 428.94 339.17 416.49 342 404.04 349.93 391.32 360.31 380.71 370.99 369.97 383.72 361.16 395.76 356.77" stroke-dasharray="7 2" transform="rotate(88.88, 400, 400)" opacity="0.89"></path><path d="M391.45 367.78C403.7 364.73 414.73 376.02 412.71 388.4 410.79 397.35 406.07 406.79 399.87 414.91 393.95 423.15 386.12 430.14 377.5 433.87 364.98 437.35 349.26 425.89 349.67 413.04 351.79 403.74 357.63 394.11 365.28 386 373.12 377.85 382.52 371.15 391.45 367.78" stroke-dasharray="10 3" transform="rotate(92.92, 400, 400)" opacity="0.92"></path><path d="M387.49 378.8C399.27 374.22 405.54 380.33 402.2 392.36 399.83 404.37 389.37 417.97 377.86 422.85 366.35 427.71 358.05 421.51 360.18 409.2 363.18 396.87 375.69 383.35 387.49 378.8" stroke-dasharray="8 8" transform="rotate(96.96, 400, 400)" opacity="0.96"></path></g></svg>