<svg xmlns="http://www.w3.org/2000/svg" version="1.1" xmlns:xlink="http://www.w3.org/1999/xlink" xmlns:svgjs="http://svgjs.dev/svgjs" viewBox="0 0 800 800"><defs><linearGradient x1="50%" y1="0%" x2="50%" y2="100%" id="cccoil-grad"><stop stop-color="hsl(206, 75%, 49%)" stop-opacity="1" offset="0%"></stop><stop stop-color="hsl(331, 90%, 56%)" stop-opacity="1" offset="100%"></stop></linearGradient></defs><g stroke="url(#cccoil-grad)" fill="none" stroke-linecap="round"><circle r="418" cx="400" cy="400" stroke-width="7" stroke-dasharray="2337 2626" transform="rotate(360, 400, 400)" opacity="0.05"></circle><circle r="396" cx="400" cy="400" stroke-width="7" stroke-dasharray="2091 2488" transform="rotate(340, 400, 400)" opacity="0.10"></circle><circle r="374" cx="400" cy="400" stroke-width="7" stroke-dasharray="1859 2350" transform="rotate(320, 400, 400)" opacity="0.16"></circle><circle r="352" cx="400" cy="400" stroke-width="7" stroke-dasharray="1640 2212" transform="rotate(300, 400, 400)" opacity="0.21"></circle><circle r="330" cx="400" cy="400" stroke-width="7" stroke-dasharray="1435 2073" transform="rotate(280, 400, 400)" opacity="0.26"></circle><circle r="308" cx="400" cy="400" stroke-width="7" stroke-dasharray="1244 1935" transform="rotate(260, 400, 400)" opacity="0.31"></circle><circle r="286" cx="400" cy="400" stroke-width="7" stroke-dasharray="1066 1797" transform="rotate(240, 400, 400)" opacity="0.37"></circle><circle r="264" cx="400" cy="400" stroke-width="7" stroke-dasharray="902 1659" transform="rotate(220, 400, 400)" opacity="0.42"></circle><circle r="242" cx="400" cy="400" stroke-width="7" stroke-dasharray="752 1521" transform="rotate(200, 400, 400)" opacity="0.47"></circle><circle r="220" cx="400" cy="400" stroke-width="7" stroke-dasharray="615 1382" transform="rotate(180, 400, 400)" opacity="0.53"></circle><circle r="198" cx="400" cy="400" stroke-width="7" stroke-dasharray="492 1244" transform="rotate(160, 400, 400)" opacity="0.58"></circle><circle r="176" cx="400" cy="400" stroke-width="7" stroke-dasharray="383 1106" transform="rotate(140, 400, 400)" opacity="0.63"></circle><circle r="154" cx="400" cy="400" stroke-width="7" stroke-dasharray="287 968" transform="rotate(120, 400, 400)" opacity="0.68"></circle><circle r="132" cx="400" cy="400" stroke-width="7" stroke-dasharray="205 829" transform="rotate(100, 400, 400)" opacity="0.74"></circle><circle r="110" cx="400" cy="400" stroke-width="7" stroke-dasharray="137 691" transform="rotate(80, 400, 400)" opacity="0.79"></circle><circle r="88" cx="400" cy="400" stroke-width="7" stroke-dasharray="82 553" transform="rotate(60, 400, 400)" opacity="0.84"></circle><circle r="66" cx="400" cy="400" stroke-width="7" stroke-dasharray="41 415" transform="rotate(40, 400, 400)" opacity="0.89"></circle><circle r="44" cx="400" cy="400" stroke-width="7" stroke-dasharray="14 276" transform="rotate(20, 400, 400)" opacity="0.95"></circle><circle r="22" cx="400" cy="400" stroke-width="7" stroke-dasharray="0 138" opacity="1.00"></circle></g></svg>