<svg id="visual" viewBox="0 0 900 600" width="900" height="600" xmlns="http://www.w3.org/2000/svg" xmlns:xlink="http://www.w3.org/1999/xlink" version="1.1"><g><g transform="translate(255 307)"><path d="M0 -123.7L107.1 -61.8L107.1 61.8L0 123.7L-107.1 61.8L-107.1 -61.8Z" fill="#76ffff"></path></g><g transform="translate(522 472)"><path d="M0 -113L97.9 -56.5L97.9 56.5L0 113L-97.9 56.5L-97.9 -56.5Z" fill="#76ffff"></path></g><g transform="translate(813 367)"><path d="M0 -110L95.3 -55L95.3 55L0 110L-95.3 55L-95.3 -55Z" fill="#76ffff"></path></g><g transform="translate(3 16)"><path d="M0 -122L105.7 -61L105.7 61L0 122L-105.7 61L-105.7 -61Z" fill="#76ffff"></path></g><g transform="translate(326 38)"><path d="M0 -86L74.5 -43L74.5 43L0 86L-74.5 43L-74.5 -43Z" fill="#76ffff"></path></g><g transform="translate(93 517)"><path d="M0 -105L90.9 -52.5L90.9 52.5L0 105L-90.9 52.5L-90.9 -52.5Z" fill="#76ffff"></path></g></g></svg>