<svg xmlns="http://www.w3.org/2000/svg" version="1.1" xmlns:xlink="http://www.w3.org/1999/xlink" xmlns:svgjs="http://svgjs.dev/svgjs" viewBox="0 0 800 800"><defs><linearGradient x1="50%" y1="0%" x2="50%" y2="100%" id="uundulate-grad"><stop stop-color="hsl(37, 99%, 67%)" stop-opacity="1" offset="45%"></stop><stop stop-color="hsl(316, 73%, 52%)" stop-opacity="1" offset="100%"></stop></linearGradient></defs><g stroke-width="2" stroke="url(#uundulate-grad)" fill="none"><path d="M670.9671191181197 267.8805371057139C696.7567010380754 368.55877362940896 593.9938926778722 595.2684207530523 501.28129214352396 642.2320614475898C408.56869160917563 689.1957021421272 304.19370711805436 555.2830928766473 225.94663655324888 493.30601243949354C147.6995659884434 431.3289320023399 131.1659403328057 409.70083362190644 125.69535343245695 344.742075349252C120.22476653210822 279.7833170765976 147.23033078672432 220.2051288172937 199.68781943157444 181.5039727307523C252.1453080764245 142.8028166442109 279.3081114930401 140.9814085557357 377.49129892773703 158.97652613385264C475.674486362434 176.9716437119696 645.1775371981641 167.20230058201884 670.9671191181197 267.8805371057139C696.7567010380754 368.55877362940896 593.9938926778722 595.2684207530523 501.28129214352396 642.2320614475898 "></path><path d="M658.6504055293877 273.885988044712C683.2677337257091 369.98794109005735 585.1759621091514 586.392604253535 496.67757069000083 631.2215340074116C408.1791792708502 676.0504637612883 308.548512256598 548.2247912806029 233.85812671746555 489.06485086331986C159.16774117833307 429.90491044603687 143.38564396158796 409.259907446532 138.16372010216418 347.2538200044529C132.9417962427404 285.2477325623737 158.71983484941939 228.3776437694018 208.79289219223085 191.43563114133957C258.8659495350423 154.49361851327728 284.79408006908443 152.75500170155095 378.5143953476588 169.9321593897535C472.2347106262332 187.10931707795606 634.0330773330664 177.78403499936667 658.6504055293877 273.885988044712C683.2677337257091 369.98794109005735 585.1759621091514 586.392604253535 496.67757069000083 631.2215340074116 "></path><path d="M646.333737717023 279.89140846613196C669.7788121897099 371.4170780331275 576.3580773167978 577.5167572364396 492.0738950128449 620.2109760496554C407.789712708892 662.9051948628712 312.9033631715089 541.1664591669805 241.76966265804936 484.82365876956806C170.63596214458988 428.4808583721556 155.60539336673742 408.81895075357966 150.6321325482386 349.7655341420757C145.65887172973976 290.7121175305717 170.20938468848163 236.55012820393176 217.89801072925445 201.3672590343487C265.58663677002727 166.1843898647656 290.28009442149596 164.52856432978814 379.5375375439478 180.88776212807625C468.7949806663995 197.2469599263644 622.8886632443359 188.36573889913643 646.333737717023 279.89140846613196C669.7788121897099 371.4170780331275 576.3580773167978 577.5167572364396 492.0738950128449 620.2109760496554 "></path><path d="M634.017008869502 285.89685940513004C656.2898296185544 372.84624549377577 567.5401314892881 568.6409407369222 487.47015830053283 609.2004486094772C407.40018511177743 649.7599564820323 317.25815305126355 534.1081575709361 249.68113756347702 480.5824971933944C182.10412207569044 427.05683681585253 167.82508173673062 408.3780245782053 163.10048395915675 352.2772787972766C158.3758861815828 296.1765330163478 181.69887349238763 244.7226431560399 227.0030682311218 211.2989174449359C272.30726296985597 177.87519173383203 295.76604773875124 176.3021574756034 380.5606187050804 191.8433953839771C465.35518967140956 207.38463329235083 611.7441881204493 198.94747331648432 634.017008869502 285.89685940513004C656.2898296185544 372.84624549377577 567.5401314892881 568.6409407369222 487.47015830053283 609.2004486094772 "></path><path d="M621.700341057137 291.90227982655006C642.8009080825553 374.27538243684603 558.7222466969345 559.7650937198268 482.8664826233769 598.189890651721C407.0107185498192 636.6146875836155 321.61300396617446 527.0498254573138 257.5926735040608 476.34130509964257C193.5723430419473 425.63278474197125 180.04483114188008 407.9370678852529 175.5688964052311 354.7889929348994C171.09296166858218 301.6409179845458 193.18842333144988 252.89512759056987 236.1081867681454 221.23054533794505C279.0279502048409 189.56596308532028 301.25206209116277 188.07572010384058 381.5837609013694 202.79899812229985C461.915459711576 217.52227614075917 600.5997740317187 209.52917721625403 621.700341057137 291.90227982655006C642.8009080825553 374.27538243684603 558.7222466969345 559.7650937198268 482.8664826233769 598.189890651721 "></path><path d="M609.3836427271941 297.9076849891809C629.3119560289781 375.7045041211271 549.9043313870027 550.8892314439424 478.26277642864284 587.1793174351758C406.62122147028276 623.4694034264094 325.96782436350713 519.9914780849022 265.5041789270666 472.1000977471016C205.040533490626 424.208717409301 192.2645500294514 407.49609593351147 188.0372783337274 357.300691813733C183.81000663800336 307.10528769395466 204.677942652934 261.06759676631077 245.21327478759088 231.16215797216512C285.74860692224775 201.25671917801952 306.7380459259962 199.84926747328865 382.6068725800802 213.75458560183358C458.47569923416427 227.65990373037846 589.4553294254101 220.11086585723473 609.3836427271941 297.9076849891809C629.3119560289781 375.7045041211271 549.9043313870027 550.8892314439424 478.26277642864284 587.1793174351758 "></path><path d="M597.0669901736184 303.91313592817903C615.8230497517679 377.1336715817755 541.0864618534383 542.0134149444251 473.65911601027597 576.1687899949977C406.2317701671136 610.3241650455705 330.3226905372071 512.9331764888578 273.4157301264395 467.8589361709279C216.50876971567192 422.78469585299797 204.48431469338993 407.05516975813714 200.50570603859086 359.81243646893404C196.52709738379178 312.5697031797308 216.16750775078532 269.24011171841886 254.31840858340354 241.09381638275238C292.4693094160218 212.9475210470859 312.22407553719677 211.62286061910396 383.63003003515814 224.71021885773445C455.03598453311963 237.79757709636493 578.3109305954688 230.69260027458256 597.0669901736184 303.91313592817903C615.8230497517679 377.1336715817755 541.0864618534383 542.0134149444251 473.65911601027597 576.1687899949977 "></path><path d="M584.7502765848863 309.91857160838805C602.3340824394016 378.5628237836347 532.2685312847175 533.1375831861187 469.05539455675284 565.1582472960306C405.8422578287881 597.1789114059425 334.67749567575083 505.87485963402446 281.3272202906562 463.61775933596505C227.97694490556154 421.36065903790575 216.7040183221722 406.61422832397375 212.97407270829808 362.3241658653458C209.24412709442396 318.0341034067178 227.65701181348038 277.4126114117379 263.42348134405995 251.02545953455058C299.1899508746396 224.63830765736327 317.7100441132411 223.39643850613015 384.6531264550799 235.66583685484625C451.59620879691875 247.93523520356234 567.1664707303711 241.2743194331414 584.7502765848863 309.91857160838805C602.3340824394016 378.5628237836347 532.2685312847175 533.1375831861187 469.05539455675284 565.1582472960306 "></path><path d="M572.4335935137325 315.92397677101894C588.8451456446134 379.9919454679158 523.450631233575 524.2617209102343 464.45170362080785 554.1476740794853C405.4527760080408 584.0336272487365 339.0323313318726 498.81651226161284 289.23874097245096 459.3765519834242C239.44515061302934 419.9365917052355 228.9237524685326 406.17325637223234 225.44246989558343 364.8358647441795C221.9611873226342 323.4984731161268 239.14654639375357 285.58508058747884 272.5285846222945 260.95707216877065C305.91062285083547 236.32906375006246 323.1960432068636 235.16998587557822 385.67625339257984 246.62142433437992C448.1564635782961 258.0728627931816 556.0220413828515 251.8560080741221 572.4335935137325 315.92397677101894C588.8451456446134 379.9919454679158 523.450631233575 524.2617209102343 464.45170362080785 554.1476740794853 "></path><path d="M560.1169409601567 321.929427710017C575.3562393674033 381.4211129285641 514.6327617000104 515.385904410717 459.848043202441 543.1371466393073C405.06332470487155 570.8883888678976 343.3871975055726 491.75821066556864 297.1502921718239 455.1353904072505C250.9133868380752 418.51257014893235 241.14351713247112 405.732330196858 237.91089760044684 367.3476093993804C234.67827806842263 328.9628886019028 250.63611149160488 293.75759553958693 281.6337184181072 270.8887305793579C312.63132534460954 248.0198656191289 328.68207281806417 246.94357902139353 386.6994108476579 257.5770575902808C444.71674887725146 268.2105361591681 544.8776425529102 262.4377424914699 560.1169409601567 321.929427710017C575.3562393674033 381.4211129285641 514.6327617000104 515.385904410717 459.848043202441 543.1371466393073 "></path><path d="M547.8002121126357 327.934848131437C561.8672567962478 382.85024987163433 505.8148158725006 506.51005739362154 455.2443064901288 532.1265886815511C404.6737971077571 557.7431199694806 347.7419873853272 484.6998785519461 305.0617670772515 450.8941983134987C262.3815467691758 417.0885180750512 253.36320550246433 405.29137350390556 250.379249011365 369.8593235370032C247.39529252026574 334.42727357010085 262.1256002955109 301.9300799741169 290.73877591997456 280.82035847236705C319.35195154443824 259.71063697061714 334.16802613531945 258.71714164963066 387.72249200879054 268.5326603286036C441.2769578822615 278.34817900757645 533.7331674290234 273.0194463912397 547.8002121126357 327.934848131437C561.8672567962478 382.85024987163433 505.8148158725006 506.51005739362154 455.2443064901288 532.1265886815511 "></path><path d="M535.4835595590598 333.94029907043506C548.3783505190377 384.2794173322826 496.99694633893614 497.6342408941043 450.6406460717619 521.116061241373C404.2843458045878 544.5978815886417 352.0968535590272 477.64157695590177 312.9733182766244 446.6530367373249C273.8497829942217 415.66449651874814 265.58297016640284 404.85044732853135 262.8476767162285 372.3710681922041C260.1123832660541 339.8916890558769 273.6151653933622 310.102594926225 299.8439097157872 290.7520168829543C326.07265403821225 271.4014388396836 339.65405574652004 270.490734795446 388.7456494638685 279.48829358450445C437.837243181217 288.4858523735629 522.5887685990821 283.6011808085875 535.4835595590598 333.94029907043506C548.3783505190377 384.2794173322826 496.99694633893614 497.6342408941043 450.6406460717619 521.116061241373 "></path><path d="M523.1668459703279 339.945719491855C534.8893832066714 385.7085542753528 488.1790157702153 488.75839387700887 446.0369246182388 510.1055032836168C403.8948334662624 531.4526126902247 356.45165869757085 470.5832448422793 320.8848084408411 442.4118446435731C285.3179581841114 414.24044444486685 277.8026737951851 404.4094906355789 275.3160433859357 374.8827823298269C272.8294129766863 345.3560740240749 285.1046694560572 318.27507936075494 308.94898247644363 300.6836447759634C332.79329549683 283.09221019117183 345.1400243225644 282.2642974236831 389.7687458837903 290.4438963228272C434.3974674450162 298.62349522197127 511.44430873398437 294.1828847083573 523.1668459703279 339.945719491855C534.8893832066714 385.7085542753528 488.1790157702153 488.75839387700887 446.0369246182388 510.1055032836168 "></path><path d="M510.85019341675206 345.95113991327503C521.4004769294613 387.137691218423 479.3611462366508 479.8825468599134 441.43326419987204 499.0949453258605C403.5053821630932 518.3073437918077 360.8065248712708 463.5249127286569 328.796359640214 438.1706525498213C296.78619440915725 412.8163923709856 290.02243845912363 403.96853394262644 287.7844710907992 377.3944964674497C285.54650372247465 350.8204589922729 296.5942345539085 326.4475637952849 318.0541162722563 310.6152726689725C339.5139979906041 294.78298154266014 350.626053933765 294.0378600519203 390.7919033388683 301.3994990611499C430.9577527439716 308.7611380703796 500.2999099040429 304.76458860812704 510.85019341675206 345.95113991327503C521.4004769294613 387.137691218423 479.3611462366508 479.8825468599134 441.43326419987204 499.0949453258605 "></path><path d="M498.53347982802006 351.956560334695C507.9115096170949 388.5668281614932 470.5432156679301 471.0066998428181 436.8295427463489 488.08438736810433C403.11586982476774 505.1620748933907 365.1613300098145 456.46658061503445 336.7078498044307 433.9294604560694C308.25436959904687 411.39234029710445 302.2421420879059 403.52757724967404 300.2528377605064 379.9062106050725C298.26353343310683 356.2848439604709 308.08373861660357 334.62004822981487 327.1591890329127 320.54690056198166C346.23463944922185 306.47375289414845 356.1120225098093 305.8114226801574 391.81499975879 312.35510179947266C427.51797700777075 318.89878091878796 489.15545003894533 315.34629250789675 498.53347982802006 351.956560334695C507.9115096170949 388.5668281614932 470.5432156679301 471.0066998428181 436.8295427463489 488.08438736810433 "></path><path d="M486.21681201565525 357.961996014904C494.4225880810957 389.99598036335243 461.72533087557656 462.1308680845117 432.225867069193 477.0738446691372C402.72640326280947 492.0168212537628 369.5161809247254 449.40826376020095 344.61938574501454 429.6882836211066C319.72259056530373 409.9683034820123 314.46189149305536 403.0866358155107 312.72125020658075 382.4179400014843C310.9806089201062 361.7492441874579 319.5732884556658 342.79254792313395 336.2643075699363 330.47854371377986C352.9553266842068 318.16453950442576 361.59803686222085 317.58500056718367 392.838141955079 323.3107197965845C424.0782470479371 329.0364390259854 478.0110359502148 325.9280116664556 486.21681201565525 357.961996014904C494.4225880810957 389.99598036335243 461.72533087557656 462.1308680845117 432.225867069193 477.0738446691372 "></path><path d="M473.90009842692325 363.96741643632396C480.9336207687294 391.42511730642264 452.9074003068558 453.25502106741624 427.62214561566987 466.063286711381C402.336890924484 478.8715523553458 373.8709860632691 442.3499316465785 352.5308759092312 425.4470915273548C331.19076575519335 408.54425140813106 326.68159512183763 402.64567912255825 325.18961687628797 384.9296541391071C323.6976386307383 367.2136291556559 331.0627925183609 350.9650323576639 345.3693803305927 340.410171606789C359.67596814282456 329.85531085591407 367.0840054382652 329.3585631954208 393.86123837500077 334.26632253490726C420.6384713117362 339.17408187439366 466.8665760851172 336.5097155662253 473.90009842692325 363.96741643632396C480.9336207687294 391.42511730642264 452.9074003068558 453.25502106741624 427.62214561566987 466.063286711381 "></path><path d="M461.5834306145585 369.97286737532204C467.4446992327302 392.85428476707096 444.0895155145022 444.37920456789897 423.01846993851393 455.05275927120294C401.94742436252574 465.72631397450687 378.22583697818 435.2916300505342 360.4424118498151 421.2059299511811C342.6589867214502 407.12022985182796 338.9013445269871 402.204752947184 337.6580293223624 387.441398794308C336.4147141177377 372.678044641432 342.55234235742313 359.137547309772 354.4744988676163 350.34183001737625C366.39665537780957 341.54611272498045 372.5700197906767 341.1321563412361 394.8843805712897 345.2219557908081C417.19874135190264 349.31175524038014 455.7221619963867 347.09144998357317 461.5834306145585 369.97286737532204C467.4446992327302 392.85428476707096 444.0895155145022 444.37920456789897 423.01846993851393 455.05275927120294 "></path><path d="M449.26674754340456 375.97827253795293C453.955762437942 394.28340645135205 435.2716154633596 435.5033422920145 418.414779002569 444.04218605465763C401.5579425417784 452.5810298173008 382.5806726343018 428.2332826781227 368.35393253160987 416.96472259864015C354.12719242891797 405.69616251915767 351.1210786733475 401.7637809954425 350.12642650964773 389.9530976731417C349.131774345948 378.1424143508409 354.0418769376963 367.3100164855129 363.5796021458509 360.2734426515963C373.11732735400545 353.2368688176797 378.0560188842992 352.9057037106842 395.90750750878954 356.1775432703418C413.7589961332799 359.4493828299994 444.5777326488672 357.67313862455387 449.26674754340456 375.97827253795293C453.955762437942 394.28340645135205 435.2716154633596 435.5033422920145 418.414779002569 444.04218605465763 "></path><path d="M436.9500492134616 381.983708218162C440.4668103843647 395.7125586532113 426.45370015342786 426.6275105337081 413.81107280783493 433.0316433556905C401.168445462242 439.4357761776729 386.93549303163456 421.17496582328926 376.2654379546156 412.7235457636774C365.5953828775967 404.27212570406556 363.3407975609188 401.3228395612791 362.594808438144 392.46482706955356C361.84881931536916 383.60681457782795 365.53139625918044 375.48251617883193 372.6846901652964 370.20508580339447C379.8379840714123 364.927655427957 383.5420027191326 364.6792815977104 396.9306191875004 367.1331612674536C410.3192356558681 369.58704093719683 433.4332880425586 368.25485778311264 436.9500492134616 381.983708218162C440.4668103843647 395.7125586532113 426.45370015342786 426.6275105337081 413.81107280783493 433.0316433556905 "></path><path d="M424.63336614230775 387.989143898371C426.97787358957646 397.1417108550706 417.63580010228526 417.7516787754018 409.20738187189 422.0211006567234C400.77896364149467 426.2905225380449 391.29032868775636 414.1166489684559 384.1769586364104 408.4823689287146C377.06358858506445 402.8480888889734 375.5605317072792 400.8818981271158 375.0632056254293 394.97655646596536C374.56587954357946 389.071214804815 377.0209308394536 383.655015872151 381.7897934435309 380.13672895519267C386.55865604760817 376.6184420382344 389.02800181275506 376.4528594847366 397.95374612500024 378.08877926456546C406.8794904372454 379.72469904439424 422.28885869503904 378.83657694167147 424.63336614230775 387.989143898371C426.97787358957646 397.1417108550706 417.63580010228526 417.7516787754018 409.20738187189 422.0211006567234 "></path><path d="M412.3166830711539 393.994564319791C413.48893679478823 398.57084779814073 408.8179000511426 408.87583175830633 404.603690935945 411.01054269896713C400.38948182074733 413.1452536396279 395.64516434387815 407.0583168548334 392.0884793182052 404.2411768349628C388.53179429253225 401.42403681509217 387.7802658536396 400.44094143416334 387.53160281271465 397.48827060358815C387.2829397717897 394.53559977301296 388.5104654197268 391.827500306681 390.89489672176546 390.0683568482018C393.2793280238041 388.30921338972263 394.51400090637753 388.2264221129738 398.97687306250015 389.0443820028882C403.4397452186227 389.8623418928026 411.1444293475195 389.4182808414412 412.3166830711539 393.994564319791C413.48893679478823 398.57084779814073 408.8179000511426 408.87583175830633 404.603690935945 411.01054269896713 "></path></g></svg>