<svg xmlns="http://www.w3.org/2000/svg" version="1.1" xmlns:xlink="http://www.w3.org/1999/xlink" xmlns:svgjs="http://svgjs.dev/svgjs" viewBox="0 0 800 800"><defs><linearGradient x1="50%" y1="0%" x2="50%" y2="100%" id="uundulate-grad"><stop stop-color="hsl(265, 55%, 30%)" stop-opacity="1" offset="45%"></stop><stop stop-color="hsl(265, 55%, 60%)" stop-opacity="1" offset="100%"></stop></linearGradient></defs><g stroke-width="2" stroke="url(#uundulate-grad)" fill="none"><path d="M674.9989968887746 429.15112341360873C675.3066827260699 510.77520040239574 610.5704766851513 600.7298351791096 533.0750077599391 626.3625664207739C455.57953883472715 651.9952976624381 385.94383367374553 643.0462004585017 303.02074604775623 552.1882333735975C220.09765842176694 461.33026628869345 87.42390180244752 256.4154153505267 135.04418715519063 190.24432441323444C182.6644725079338 124.07323347594223 419.1075303797594 184.79474708285102 531.5981157409228 234.5669968745956C644.088701102086 284.33924666634016 674.6913110514794 347.5270464248215 674.9989968887746 429.15112341360873C675.3066827260699 510.77520040239574 610.5704766851513 600.7298351791096 533.0750077599391 626.3625664207739 "></path><path d="M662.4990438719021 427.8260584777273C662.7927439893203 505.73995014884235 600.9990927684433 591.605737890251 527.0261451580136 616.0733449845668C453.053197547584 640.5409520788826 386.5827517121015 631.9986320205797 307.42889534183905 545.270572530444C228.27503897157652 458.5425130403082 101.63190765313527 262.94197350842177 147.08763458075373 199.77865943191557C192.5433615083722 136.61534535540937 418.23900765875123 194.5767901620041 525.616384594407 242.08666496321484C632.993761530063 289.5965397644256 662.2053437544839 349.9121668066123 662.4990438719021 427.8260584777273C662.7927439893203 505.73995014884235 600.9990927684433 591.605737890251 527.0261451580136 616.0733449845668 "></path><path d="M649.9990603374513 426.50100880063496C650.2787747349926 500.7047151540778 591.4276783341573 582.4816558601813 520.9772520385101 605.7841388071488C450.5268257428628 629.0866217541163 387.2216392328794 620.9510788414468 311.83701411834375 538.3529269460795C236.45238900380798 455.75477505071217 115.8398829862449 269.4685469251059 159.13105148873865 209.3130097093857C202.4222199912324 149.15747249366552 417.37045442016483 204.35884849994625 519.6346229303133 249.60634831062316C621.8987914404618 294.8538481213 649.7193459399102 352.2973024471921 649.9990603374513 426.50100880063496C650.2787747349926 500.7047151540778 591.4276783341573 582.4816558601813 520.9772520385101 605.7841388071488 "></path><path d="M637.4991225793678 425.1759591235427C637.764851257032 495.6694801593135 581.8563096762387 573.3575738301117 514.9284046953736 595.4949326297308C448.0004997145087 617.6322914293498 387.86057253002446 609.903525662314 316.24517867121557 531.4352813617149C244.62978481240668 452.9670370611159 130.04790409572172 275.9951203417901 171.1745141730908 218.8473599868559C212.30112425045985 161.69959963192173 416.5019469579456 214.1409068378884 513.6529070425867 257.1260316580314C610.8038671272277 300.1111564781745 637.2333939017037 354.68243808777197 637.4991225793678 425.1759591235427C637.764851257032 495.6694801593135 581.8563096762387 573.3575738301117 514.9284046953736 595.4949326297308 "></path><path d="M624.9991848212844 423.85092470523944C625.2509277790714 490.634260423338 572.2849410183198 564.2335070588313 508.87955735223727 585.2057417111018C445.4741736861546 606.1779763633726 388.4995058271696 598.8559877419702 320.65334322408745 524.5176510361396C252.80718062100533 450.1793143303089 144.25592520519854 282.52170901726333 183.21797685744292 228.3817255231151C222.1800285096873 174.24174202896694 415.6334394957264 223.9229804346196 507.67119115486 264.6457302642288C599.7089428139938 305.368480093838 624.7474418634974 357.0675889871409 624.9991848212844 423.85092470523944C625.2509277790714 490.634260423338 572.2849410183198 564.2335070588313 508.87955735223727 585.2057417111018 "></path><path d="M612.4992318044117 422.525859769358C612.7369890423217 485.5990101697846 562.713557101612 555.1094097699724 502.83069475031175 574.9165202748948C442.94783239901153 594.7236307798172 389.1384238655256 587.8084193040481 325.06149251817027 517.5999901929858C260.9845611708149 447.39156108192356 158.4639310558863 289.0482671751584 195.26142428300597 237.91606054179624C232.0589175101257 186.78385390843408 414.76491677471824 233.7050235137727 501.68946000834444 272.165398352848C588.6140032419706 310.6257731919234 612.2614745665019 359.45270936893166 612.4992318044117 422.525859769358C612.7369890423217 485.5990101697846 562.713557101612 555.1094097699724 502.83069475031175 574.9165202748948 "></path><path d="M599.999217752383 421.2008100922658C600.2229892704158 480.56377517502006 553.1421121497478 545.9853277399029 496.78177111323 564.6273140974769C440.4214300767121 583.2693004550508 389.7772808687255 576.7608661249153 329.46958077709684 510.6823446086214C269.16188068546825 444.6038230923275 172.6718758714178 295.57484059184253 207.30481067341282 247.45041081926638C241.93774547540778 199.32598104669023 413.8963330185537 243.48708185171483 495.7076678266725 279.6850817002563C577.5190026347914 315.8830815487978 599.77544623435 361.8378450095115 599.999217752383 421.2008100922658C600.2229892704158 480.56377517502006 553.1421121497478 545.9853277399029 496.78177111323 564.6273140974769 "></path><path d="M587.4993257706667 419.87576041517354C587.7091115688224 475.5285401802556 543.5707892681962 536.8612457098333 490.7329695464607 554.3381079200587C437.8951498247252 571.8149701302845 390.41625994223773 565.7133129457825 333.8777911063359 503.76469902425686C277.3393222704341 441.81608510273134 186.8799427572618 302.1014140085267 219.3483191341321 256.9847610967366C251.81669551100242 211.86810818494644 413.0278713327017 253.26914018965692 489.72599771531304 287.20476504766464C566.4241240979245 321.1403899056723 587.2895399725107 364.22298065009136 587.4993257706667 419.87576041517354C587.7091115688224 475.5285401802556 543.5707892681962 536.8612457098333 490.7329695464607 554.3381079200587 "></path><path d="M574.9993880125832 418.5507107380812C575.195188090862 470.4933051854912 533.9994206102774 527.7371636797636 484.68412220332425 544.048901742641C435.3688237963711 560.3606398055181 391.0551932393828 554.6657597666494 338.2859556592078 496.8470534398923C285.5167180790328 439.02834711313517 201.08796386673862 308.62798742521085 231.39178181848422 266.5191113742067C261.6955997702299 224.41023532320258 412.1593638704826 263.05119852759907 483.7442818275865 294.7244483950729C555.3291997846904 326.3976982625467 574.8035879343043 366.6081162906712 574.9993880125832 418.5507107380812C575.195188090862 470.4933051854912 533.9994206102774 527.7371636797636 484.68412220332425 544.048901742641 "></path><path d="M562.4993892193434 417.2256458021998C562.6812035777451 465.4580549319377 524.4279909172024 518.613066390905 478.63521382503154 533.7596803064338C432.84243673286073 548.9062942219626 391.6940655013716 543.6181913287276 342.6940591769234 489.9293925967388C293.6940528524752 436.24059386474994 215.2959239410592 315.15454558310597 243.43518346768013 276.05344639288785C271.5744429943011 236.95234720266973 411.29079537310713 272.83324160675215 477.76250490470363 302.24411648369215C544.2342144363001 331.65499136063215 562.3175748609417 368.993236672462 562.4993892193434 417.2256458021998C562.6812035777451 465.4580549319377 524.4279909172024 518.613066390905 478.63521382503154 533.7596803064338 "></path><path d="M549.9994362024709 415.90059612510754C550.1672648409956 460.42281993717324 514.8566070004945 509.4889843608354 472.586351223106 523.4704741290159C430.3160954457177 537.4519638971963 392.33298353972765 532.5706381495947 347.10220847100624 483.01174701237426C301.8714334022848 433.4528558751538 229.50392979174694 321.6811189997901 255.47863089324318 285.587796670358C281.4533319947395 249.49447434092588 410.42227265209885 282.6152999446943 471.78077375818793 309.7637998311004C533.139274864277 336.9122997175066 549.8316075639461 371.37837231304184 549.9994362024709 415.90059612510754C550.1672648409956 460.42281993717324 514.8566070004945 509.4889843608354 472.586351223106 523.4704741290159 "></path><path d="M537.4994831855983 414.5755464480153C537.6533261042459 455.3875849424088 505.2852230837866 500.36490233076574 466.5374886211805 513.1812679515979C427.7897541585745 525.99763357243 392.9719015780837 521.5230849704618 351.51035776508905 476.0941014280097C310.0488139520944 430.66511788555766 243.7119356424347 328.2076924164743 267.5220783188063 295.1221469478282C291.3322209951778 262.0366014791821 409.55374993109064 292.39735828263645 465.79904261167235 317.28348317850873C522.0443352922539 342.169608074381 537.3456402669506 373.7635079536217 537.4994831855983 414.5755464480153C537.6533261042459 455.3875849424088 505.2852230837866 500.36490233076574 466.5374886211805 513.1812679515979 "></path><path d="M524.9995454275147 413.25049677092295C525.1394026262853 450.35234994764437 495.7138544258678 491.2408203006961 460.48864127804404 502.89206177417987C425.26342813022046 514.5433032476636 393.61083487522876 510.4755317913289 355.91852231796094 469.1764558436453C318.22620976069305 427.87737989596155 257.9199567519115 334.7342658331584 279.5655410031584 304.6564972252983C301.21112525440526 274.57872861743823 408.6852424688715 302.1794166205786 459.8173267239457 324.80316652591705C510.94941097901994 347.42691643125545 524.8596882287442 376.14864359420153 524.9995454275147 413.25049677092295C525.1394026262853 450.35234994764437 495.7138544258678 491.2408203006961 460.48864127804404 502.89206177417987 "></path><path d="M512.4995924106422 411.92544709383066C512.6254638895357 445.31711495287993 486.1424705091599 482.11673827062657 454.43977867611864 492.60285559676186C422.7370868430773 503.08897292289726 394.2497529135848 499.42797861219606 360.3266716120437 462.2588102592807C326.40359031050264 425.0896419063654 272.12796260259927 341.2608392498426 291.60898842872143 314.1908475027685C311.09001425484365 287.12085575569444 407.8167197478632 311.96147495852074 453.83559557743 332.3228498733253C499.85447140699694 352.68422478812994 512.3737209317487 378.5337792347814 512.4995924106422 411.92544709383066C512.6254638895357 445.31711495287993 486.1424705091599 482.11673827062657 454.43977867611864 492.60285559676186 "></path><path d="M499.9995936174024 410.6004279343165C500.11147937641886 440.2819104756936 476.57104081608486 472.99268675813505 448.3908702978259 482.313679936922C420.210699779567 491.634673115709 394.8886251755737 488.38045595064125 364.7347751297593 455.3411951924943C334.5809250839451 422.30193443434734 286.33592267691984 347.78744318410486 303.65239007791735 323.7252282978168C320.96885747891486 299.6630134115287 406.9481512504878 321.743563814041 447.8538186545472 339.84256373831175C488.7594860586066 357.9415636625825 499.88770785838597 380.91894539293935 499.9995936174024 410.6004279343165C500.11147937641886 440.2819104756936 476.57104081608486 472.99268675813505 448.3908702978259 482.313679936922 "></path><path d="M487.49965585931886 409.27534773964607C487.59755589845827 435.24664496335106 466.99967215816605 463.8685742104873 442.34202295468947 472.02444324192595C417.6843737512129 480.1803122733645 395.52755847271874 477.3328722539302 369.1429396826312 448.4235190905516C342.75832089254374 419.51416592717305 300.54394378639665 354.3139860832109 315.69585276226945 333.25954805770886C330.84776173814225 312.2051100322068 406.07964378826864 331.52559163440503 441.8721027668206 347.36221656814195C477.66456174537257 363.19884150187886 487.40175582017946 383.30405051594107 487.49965585931886 409.27534773964607C487.59755589845827 435.24664496335106 466.99967215816605 463.8685742104873 442.34202295468947 472.02444324192595 "></path><path d="M474.99971810123543 407.95031332134283C475.0836324204978 430.2114252273757 457.42830350024724 454.74450743920676 436.293175611553 461.735252323297C415.15804772285884 468.7259972073872 396.1664917698638 466.28533433358643 373.5511042355031 441.5058887649762C350.9357167011424 416.72644319636595 314.75196489587347 360.8405747586841 327.7393154466216 342.79391359396806C340.7266659973697 324.747252429252 405.2111363260494 341.30766523113624 435.89038687909397 354.88191517433927C466.5696374321385 368.45616511754235 474.91580378197307 385.68920141531 474.99971810123543 407.95031332134283C475.0836324204978 430.2114252273757 457.42830350024724 454.74450743920676 436.293175611553 461.735252323297 "></path><path d="M462.4997650843628 406.6252483854615C462.56969368374814 425.1761749738222 447.85691958353937 445.62041015034805 430.2443130096275 451.44603088708993C412.6317064357157 457.2716516238318 396.80540980821985 455.23776589566444 377.9592535295859 434.58822792182264C359.113097250952 413.9386899479808 328.9599707465612 367.36713291657924 339.78276287218466 352.3282486126492C350.6055549978081 337.28936430871914 404.3426136050412 351.0897083102893 429.9086557325783 362.4015832629585C455.47469786011544 373.7134582156277 462.42983648497756 388.07432179710077 462.4997650843628 406.6252483854615C462.56969368374814 425.1761749738222 447.85691958353937 445.62041015034805 430.2443130096275 451.44603088708993 "></path><path d="M449.99981206749027 405.30021396715824C450.0557549469985 420.1409552378468 438.2855356668315 436.4963433790675 424.195450407702 441.156839968461C410.10536514857256 445.8173365578545 397.4443278465759 444.1902279753206 382.3674028236687 427.67059759624715C367.2904778007616 411.1509672171737 343.167976597249 373.89372159205243 351.8262102977477 361.8626141489084C360.4844439982465 349.83150670576435 403.474090884033 360.8717819070205 423.9269245860627 369.9212818691559C444.3797582880924 378.9707818312913 449.94386918798205 390.4594726964697 449.99981206749027 405.30021396715824C450.0557549469985 420.1409552378468 438.2855356668315 436.4963433790675 424.195450407702 441.156839968461 "></path><path d="M437.4998590506177 403.9751490312769C437.5418162102489 415.1057049842933 428.7141517501236 427.3722460902088 418.1465878057765 430.86761853225397C407.5790238614294 434.36299097429907 398.0832458849319 433.1426595373987 386.77555211775154 420.75293675309354C375.4678583505712 408.36321396878844 357.37598244793674 380.42027974994755 363.8696577233108 371.3969491675895C370.3633329986849 362.3736185852315 402.6055681630247 370.65382498617356 417.945193439547 377.4409499577751C433.28481871606925 384.22807492937665 437.45790189098653 392.84459307826046 437.4998590506177 403.9751490312769C437.5418162102489 415.1057049842933 428.7141517501236 427.3722460902088 418.1465878057765 430.86761853225397 "></path><path d="M424.99990603374516 402.6500993541846C425.02787747349925 410.0704699895289 419.14276783341575 418.24816406013923 412.09772520385104 420.57841235483596C405.0526825742863 422.90866064953275 398.72216392328795 422.09510635826575 391.18370141183436 413.83529116872904C383.6452389003808 405.57547597919233 371.5839882986245 386.9468531666317 375.91310514887385 380.93129944505966C380.2422219991232 374.91574572348765 401.7370454420165 380.4358833241157 411.96346229303134 384.9606333051834C422.1898791440462 389.4853832862511 424.971934593991 395.2297287188403 424.99990603374516 402.6500993541846C425.02787747349925 410.0704699895289 419.14276783341575 418.24816406013923 412.09772520385104 420.57841235483596 "></path><path d="M412.49995301687255 401.3250496770923C412.51393873674965 405.03523499476444 409.5713839167079 409.1240820300696 406.0488626019255 410.289206177418C402.5263412871431 411.4543303247664 399.36108196164395 411.0475531791329 395.5918507059172 406.9176455843645C391.8226194501904 402.78773798959617 385.79199414931225 393.47342658331587 387.95655257443696 390.46564972252986C390.1211109995616 387.45787286174385 400.8685227210082 390.21794166205785 405.98173114651564 392.4803166525917C411.09493957202307 394.74269164312557 412.4859672969955 397.61486435942015 412.49995301687255 401.3250496770923C412.51393873674965 405.03523499476444 409.5713839167079 409.1240820300696 406.0488626019255 410.289206177418 "></path></g></svg>