<svg xmlns="http://www.w3.org/2000/svg" version="1.1" xmlns:xlink="http://www.w3.org/1999/xlink" xmlns:svgjs="http://svgjs.dev/svgjs" viewBox="0 0 800 800"><defs><linearGradient x1="50%" y1="0%" x2="50%" y2="100%" id="uundulate-grad"><stop stop-color="hsl(162, 100%, 58%)" stop-opacity="1" offset="45%"></stop><stop stop-color="hsl(270, 73%, 53%)" stop-opacity="1" offset="100%"></stop></linearGradient></defs><g stroke-width="1" stroke="url(#uundulate-grad)" fill="none"><path d="M1469.1672313419017 -57.88269464278642C1518.2170531998377 245.04077657024038 570.2679538407624 1023.1728740449166 126.18785779753898 1144.9281436528875C-317.89223824568467 1266.6834132608583 -613.367407807634 829.4660706884997 -662.4172296655703 526.5425994754728C-711.4670515235066 223.6191282624461 -553.3313831637815 -187.34924856166867 -109.25128712055812 -309.1045181696394C334.8288089226653 -430.8597877776102 1420.1174094839653 -360.8061658558132 1469.1672313419017 -57.88269464278642C1518.2170531998377 245.04077657024038 570.2679538407624 1023.1728740449166 126.18785779753898 1144.9281436528875 "></path><path d="M1443.710872323949 -46.98070683088599C1491.592841280506 248.73030078183058 566.2139585728366 1008.3354435547287 132.70719814969016 1127.1917781720335C-300.7995622734567 1246.0481127893386 -589.2396087505978 819.2407069448932 -637.1215777071545 523.5296993321767C-685.0035466637114 227.81869171946005 -530.6330132649322 -173.36472375169956 -97.12625284178546 -292.22105836900437C336.38050758136114 -411.07739298630923 1395.8289033673918 -342.6917144436026 1443.710872323949 -46.98070683088599C1491.592841280506 248.73030078183058 566.2139585728366 1008.3354435547287 132.70719814969016 1127.1917781720335 "></path><path d="M1418.2544827884185 -36.07868850140744C1464.9685988435954 252.419855510999 562.1599327873332 993.4980435821192 139.2265079842632 1109.455443208758C-283.7069168188068 1225.412842835397 -565.1118402111396 809.0153737188648 -611.825956266317 520.5168297064586C-658.5400723214943 232.0182856940521 -507.934673883661 -159.38016842415243 -85.00124908059104 -275.3375680507913C337.93217572247886 -391.2949676774301 1371.5403667332403 -324.5772325138139 1418.2544827884185 -36.07868850140744C1464.9685988435954 252.419855510999 562.1599327873332 993.4980435821192 139.2265079842632 1109.455443208758 "></path><path d="M1392.7981237704653 -25.17673120708514C1438.3443869242637 256.1093492050111 558.1059375194077 978.6605825743532 145.74584833641438 1091.7190472103262C-266.6142408465789 1204.777511846299 -540.9840411541034 798.7899794576804 -586.5303043079012 517.5038990455841C-632.0765674616991 236.2178186334878 -485.2363039848116 -145.39567413176144 -72.87621480181838 -258.4541387677344C339.4838743811749 -371.51260340370726 1347.2518606166677 -306.4628116191815 1392.7981237704653 -25.17673120708514C1438.3443869242637 256.1093492050111 558.1059375194077 978.6605825743532 145.74584833641438 1091.7190472103262 "></path><path d="M1367.341764752513 -14.27471287760659C1411.7201750049312 259.7989039341794 554.0519422514822 963.8231826017438 152.26518868856556 1073.9827122470508C-249.52156487435082 1184.1422418923576 -516.856242097067 788.5646462316522 -561.2346523494855 514.491029419866C-605.613062601904 240.41741260807999 -462.5379340859623 -131.4111188042143 -60.75118052304583 -241.57064844952123C341.03557303987054 -351.73017809482815 1322.9633545000943 -288.34832968939276 1367.341764752513 -14.27471287760659C1411.7201750049312 259.7989039341794 554.0519422514822 963.8231826017438 152.26518868856556 1073.9827122470508 "></path><path d="M1341.8852836642477 -3.372786100862527C1385.095841015287 263.48836711061347 549.9978249132441 948.9856910763997 158.78440697040423 1056.2462857310406C-232.42901097243544 1163.5068803856816 -492.7285651103432 778.3392214528897 -535.9391224613823 511.47806824141344C-579.1496798124214 244.61691502993756 -439.83968625742546 -117.42665502940156 -48.626268314585786 -224.68724968404246C342.5871496282539 -331.9478443386834 1298.6747263132088 -270.2339393123384 1341.8852836642477 -3.372786100862527C1385.095841015287 263.48836711061347 549.9978249132441 948.9856910763997 158.78440697040423 1056.2462857310406 "></path><path d="M1316.4290467166074 7.529201711038013C1358.4717511662675 267.17789132220366 545.9439517156311 934.148260586212 165.30386939286814 1038.509920250187C-215.33621292989483 1142.8715799141619 -468.60064398299437 768.1138577092831 -510.643348432654 508.4651680981174C-552.6860528823137 248.8164784869515 -417.14119428826365 -103.44213021943244 -36.50111196550063 -207.80378988340743C344.1389703572622 -312.1654495473824 1274.3863422669478 -252.11948790012787 1316.4290467166074 7.529201711038013C1358.4717511662675 267.17789132220366 545.9439517156311 934.148260586212 165.30386939286814 1038.509920250187 "></path><path d="M1290.9726876986551 18.43112848778219C1331.8475392469354 270.8673544986377 541.8899564477056 919.3107690608679 171.8232097450193 1020.773493734177C-198.24353695766695 1122.236218407486 -444.47284492595804 757.8884329305206 -485.34769647423826 505.4522069196646C-526.2225480225185 253.01598090880918 -394.44282438941434 -89.45766644461969 -24.37607768672808 -190.92039111792866C345.69066901595806 -292.3831157912377 1250.0978361503749 -234.00509752307352 1290.9726876986551 18.43112848778219C1331.8475392469354 270.8673544986377 541.8899564477056 919.3107690608679 171.8232097450193 1020.773493734177 "></path><path d="M1265.5162981631242 29.3331162996825C1305.2232968100252 274.5568787102279 537.8359306622019 904.47333857068 178.34251957959236 1003.0371282533231C-181.15089150301696 1101.6009179359662 -420.3450763864999 747.6630691869141 -460.0520750334007 502.43930677636854C-499.75907368030147 257.21554436582323 -371.7444850081431 -75.47314163465069 -12.251073925533547 -174.0369313172937C347.2423371570758 -272.6007209999367 1225.8092995162233 -215.89064611086292 1265.5162981631242 29.3331162996825C1305.2232968100252 274.5568787102279 537.8359306622019 904.47333857068 178.34251957959236 1003.0371282533231 "></path><path d="M1240.059817074859 40.23510411158304C1278.5989628203802 278.24640292181834 533.7818133239639 889.6359080804925 184.86173786143115 985.3007627724696C-164.05833760110158 1080.9656174644467 -396.21739939977607 737.4377054433078 -434.7565451452974 499.4264066330725C-473.2956908908188 261.4151078228372 -349.04623717960624 -61.48861682468157 -0.12616171707350077 -157.15347151665867C348.7939137454591 -252.8183262086357 1201.5206713293376 -197.77619469865232 1240.059817074859 40.23510411158304C1278.5989628203802 278.24640292181834 533.7818133239639 889.6359080804925 184.86173786143115 985.3007627724696 "></path><path d="M1214.6035496096408 51.137030888327104C1251.9748424537827 281.9358660982523 529.7279096087727 874.7984165551484 191.3811697663167 967.5643362564597C-146.96557007613922 1060.3302559577708 -372.0895087900054 727.2122806645452 -409.46080163414734 496.41344545461993C-446.83209447828926 265.61461024469486 -326.34777572802255 -47.50415304986882 11.99896411443342 -140.2700727511799C350.34570395688934 -233.03599245249097 1177.2322567654987 -179.66180432159803 1214.6035496096408 51.137030888327104C1251.9748424537827 281.9358660982523 529.7279096087727 874.7984165551484 191.3811697663167 967.5643362564597 "></path><path d="M1189.1472516268443 62.039049217805655C1225.350691569607 285.6254208274207 525.6739753760035 859.9610165825388 197.90057115362424 949.8280012931839C-129.87283306875497 1039.6949860038292 -347.96164869781285 716.9869474385168 -384.16508864057533 493.40057582890176C-420.3685285833378 269.8142042192869 -303.64934479401694 -33.51959772232158 24.12405942836233 -123.38658243296675C351.89746365074143 -213.25356714361186 1152.943811684082 -161.5473223918093 1189.1472516268443 62.039049217805655C1225.350691569607 285.6254208274207 525.6739753760035 859.9610165825388 197.90057115362424 949.8280012931839 "></path><path d="M1163.6908315737353 72.9409454769717C1198.7264186151185 289.31485348627655 521.6199190729217 845.1234945396168 204.41985047061928 932.0915442595958C-112.78021813168334 1019.0595939795751 -323.8339106759328 706.7614921421762 -358.8694977173159 490.3875841328713C-393.9050847586989 274.0136761235665 -280.9510359303239 -19.53516446508695 36.249032671978625 -106.5032141850661C353.449101274281 -193.47126390504525 1128.6552445323523 -143.43296253233308 1163.6908315737353 72.9409454769717C1198.7264186151185 289.31485348627655 521.6199190729217 845.1234945396168 204.41985047061928 932.0915442595958 "></path><path d="M1138.2345030733609 83.84296380645026C1172.1022372133646 293.004408215445 517.5659543225743 830.2860945670072 210.93922134034858 914.3552092963203C-95.68751164187711 998.4243240256335 -299.7060811013184 696.5361589161478 -333.573815241322 487.37471450715304C-367.4415493813256 278.21327009815855 -258.2526355138964 -5.550609137539766 48.37409746832941 -89.61972386685295C355.000830450555 -173.68883859616614 1104.3667689333574 -125.31848060254441 1138.2345030733609 83.84296380645026C1172.1022372133646 293.004408215445 517.5659543225743 830.2860945670072 210.93922134034858 914.3552092963203 "></path><path d="M1112.778083020252 94.74495161835068C1145.4779642588762 296.6939324270352 513.5118980194925 815.4486640768193 217.4585006573435 896.6188438154666C-78.59489670480548 977.7890235541138 -275.57834307943835 686.3107951725415 -308.2782243180625 484.36181436385687C-340.97810555668667 282.4128335551725 -235.55432665020328 8.433915672429237 60.499070711945706 -72.73626406621793C356.5524680740946 -153.90644380486515 1080.078201781628 -107.20402919033381 1112.778083020252 94.74495161835068C1145.4779642588762 296.6939324270352 513.5118980194925 815.4486640768193 217.4585006573435 896.6188438154666 "></path><path d="M1087.3217850374558 105.64687839509486C1118.8538133747004 300.3833956034691 509.4579637867232 800.6111725514752 223.97790204465105 878.8824172994564C-61.50215969742112 957.1536620474378 -251.45048298724578 676.0853703937787 -282.98251132449053 481.34885318540444C-314.5145396617353 286.61233597703006 -212.85589571619772 22.418379447242046 72.6241660258745 -55.852865300739154C358.1042277679468 -134.1241100487204 1055.789756700211 -89.08963881327946 1087.3217850374558 105.64687839509486C1118.8538133747004 300.3833956034691 509.4579637867232 800.6111725514752 223.97790204465105 878.8824172994564 "></path><path d="M1061.8653649843468 116.54886620699529C1092.229540420212 304.07291981505955 505.40390748364143 785.7737420612877 230.49718136164608 861.1460518186029C-44.40954476034949 936.5183615759183 -227.3227449653657 665.8600066501724 -257.686920401231 478.33595304210814C-288.05109583709634 290.8118994340441 -190.15758685250466 36.402904257211105 84.7491392694908 -38.96940550010413C359.65586539148626 -114.34171525741942 1031.5011895484815 -70.97518740106892 1061.8653649843468 116.54886620699529C1092.229540420212 304.07291981505955 505.40390748364143 785.7737420612877 230.49718136164608 861.1460518186029 "></path><path d="M1036.4090670015503 127.45079298373946C1065.6053895360362 307.7623829914935 501.34997325087215 770.9362505359436 237.0165827489535 843.4096253025928C-27.316807752965246 915.8830000692424 -203.19488487317318 655.6345818714099 -232.39120740765907 475.3229918636557C-261.5875299421449 295.0114018559018 -167.45915591849905 50.387368032023915 96.8742345834196 -22.086006734625414C361.20762508533835 -94.55938150127469 1007.2127444670646 -52.86079702401457 1036.4090670015503 127.45079298373946C1065.6053895360362 307.7623829914935 501.34997325087215 770.9362505359436 237.0165827489535 843.4096253025928 "></path><path d="M1010.9526469484415 138.3527807956399C1038.981116581548 311.4519072030837 497.2959169477904 756.0988200457559 243.53586206594855 825.6732598217393C-10.224192815893502 895.2476995977227 -179.0671468512931 645.4092181278033 -207.09561648439956 472.3100917203594C-235.124086117506 299.2109653129156 -144.76084705480594 64.37189284199292 108.99920782703612 -5.202546933990391C362.75926270887805 -74.7769867099737 982.9241773153351 -34.746345611803974 1010.9526469484415 138.3527807956399C1038.981116581548 311.4519072030837 497.2959169477904 756.0988200457559 243.53586206594855 825.6732598217393 "></path><path d="M985.4963184480671 149.2547686075403C1012.3569351797942 315.141431414674 493.24195219744297 741.261389555568 250.05523293567785 807.9368943408854C6.8685136739126165 874.612399126203 -154.9393172766787 635.1838543841969 -181.79993400840567 469.29719157706324C-208.6605507401327 303.41052876992956 -122.0624466383785 78.35641765196198 121.12427262338679 11.680912866644633C364.310991885152 -54.99459191867271 958.63570171634 -16.631894199593376 985.4963184480671 149.2547686075403C1012.3569351797942 315.141431414674 493.24195219744297 741.261389555568 250.05523293567785 807.9368943408854 "></path><path d="M960.0399594301143 160.15675641944074C985.7327232604619 318.8309556262643 489.18795692951755 726.4239590653804 256.574573287829 790.2005288600317C23.96118964614061 853.9770986546832 -130.81151821964238 624.9584906405905 -156.50428204998997 466.28429143376707C-182.1970458803375 307.6100922269435 -99.3640767395292 92.34094246193104 133.24930690215933 28.564372667279656C365.86269054384786 -35.212197127371724 934.3471955997668 1.4825572126171664 960.0399594301143 160.15675641944074C985.7327232604619 318.8309556262643 489.18795692951755 726.4239590653804 256.574573287829 790.2005288600317 "></path><path d="M934.5836004121618 171.05868319618492C959.1085113411298 322.52041880269826 485.13396166159214 711.5864675400364 263.0939136399804 772.4641023440217C41.053865618368604 833.3417371480073 -106.68371916260611 614.733065861828 -131.2086300915742 463.2713302553145C-155.73354102054236 311.8095946488012 -76.66570684067983 106.32540623674379 145.37434118093188 45.44777143275843C367.4143892025436 -15.429863371226986 910.0586894831936 19.596947589671515 934.5836004121618 171.05868319618492C959.1085113411298 322.52041880269826 485.13396166159214 711.5864675400364 263.0939136399804 772.4641023440217 "></path><path d="M909.1272108766311 181.96067100808534C932.4842689042196 326.20994301428857 481.0799358760885 696.7490370498485 269.6132234745535 754.727736863168C58.14651107301847 812.7064366764876 -82.55595062314791 604.5077021182215 -105.91300865073663 460.25843011201835C-129.2700666783253 316.0091581058151 -53.96736745940859 120.30993104671285 157.4993449421263 62.33123123339345C368.9660573436613 4.352531420074001 885.770152849042 37.711399001882114 909.1272108766311 181.96067100808534C932.4842689042196 326.20994301428857 481.0799358760885 696.7490370498485 269.6132234745535 754.727736863168 "></path><path d="M883.6709128938346 192.86259778482952C905.8601180200437 329.8994061907225 477.0260016433192 681.9115455245047 276.1326248618609 736.9913103471581C75.23924808040272 792.0710751698116 -58.42809053095539 594.2822773394589 -80.61729565716462 457.2454689335658C-102.8065007833739 320.2086605276728 -31.268936525403035 134.29439482152566 169.6244402560552 79.21462999887223C370.5178170375134 24.13486517621874 861.4817077676253 55.825789378936406 883.6709128938346 192.86259778482952C905.8601180200437 329.8994061907225 477.0260016433192 681.9115455245047 276.1326248618609 736.9913103471581 "></path><path d="M858.2144928407256 203.76458559672994C879.2358450655556 333.5889304023128 472.9719453402374 667.074115034317 282.65190417885594 719.2549448663044C92.33186301747446 771.4357746982919 -34.30035250907531 584.0569135958525 -55.32170473390511 454.2325687902696C-76.34305695873496 324.40822398468663 -8.57062766170992 148.27891963149472 181.74941349967162 96.09808979950719C372.069454661053 43.917259967519726 837.1931406158958 73.940240791147 858.2144928407256 203.76458559672994C879.2358450655556 333.5889304023128 472.9719453402374 667.074115034317 282.65190417885594 719.2549448663044 "></path><path d="M832.7581948579293 214.6665734086303C852.6116941813798 337.278454613903 468.91801110746815 652.236684544129 289.17130556616337 701.5185793854506C109.4246000248587 750.8004742267722 -10.172492416882733 573.8315498522461 -30.025991740333154 451.21966864697333C-49.87949106378352 328.6077874417007 14.127803272295637 162.26344444146372 193.87450881360041 112.98154960014222C373.6212143549051 63.699654758820714 812.9046955344788 92.0546922033576 832.7581948579293 214.6665734086303C852.6116941813798 337.278454613903 468.91801110746815 652.236684544129 289.17130556616337 701.5185793854506 "></path><path d="M807.3017748048205 225.56856122053074C825.9874212268915 340.96797882549333 464.86395480438637 637.3992540539414 295.6905848831584 683.782213904597C126.51721496193039 730.1651737552526 13.955245604997288 563.6061861086398 -4.730400817073644 448.20676850367715C-23.416047239144632 332.8073508987146 36.82611213598875 176.24796925143278 205.9994820572167 129.86500940077724C375.17285197844467 83.4820495501217 788.6161283827494 110.1691436155682 807.3017748048205 225.56856122053074C825.9874212268915 340.96797882549333 464.86395480438637 637.3992540539414 295.6905848831584 683.782213904597 "></path><path d="M781.845476822024 236.47048799727492C799.3632703427156 344.6574420019274 460.8100205716171 622.5617625285975 302.20998627046583 666.045787388587C143.60995196931458 709.5298122485766 38.083105697189865 553.3807613298771 20.56531217649831 445.1938073252247C3.0475186558068117 337.0068533205723 59.52454306999431 190.2324330262456 218.1245773711455 146.748408166256C376.72461167229676 103.26438330626644 764.3276833013324 128.2835339926225 781.845476822024 236.47048799727492C799.3632703427156 344.6574420019274 460.8100205716171 622.5617625285975 302.20998627046583 666.045787388587 "></path><path d="M756.389056768915 247.37246055038628C772.7389973882273 348.3469509547285 456.7559642685353 607.7243167796206 308.72926558746076 648.3094066489442C160.70256690638632 688.8944965182678 62.210843719069885 543.1553823274817 45.86090309975782 442.18089192313937C29.5109624804457 341.2064015187972 82.22285193368742 204.21694257742558 230.24955061476192 163.63185270810197C378.27624929583635 123.04676283877836 740.0391161496032 146.39797014604403 756.389056768915 247.37246055038628C772.7389973882273 348.3469509547285 456.7559642685353 607.7243167796206 308.72926558746076 648.3094066489442 "></path><path d="M730.9327587861187 258.2744483622867C746.1148465040515 352.03647516631884 452.70203003576603 592.8868862894329 315.2486669747684 630.5730411680905C177.79530391377057 668.2591960467482 86.33870381126246 532.9300185838753 71.15661609332977 439.1679917798431C55.97452837539714 345.4059649758111 104.92128286769298 218.2014673873946 242.3746459286907 180.515312508737C379.82800898968844 142.82915763007935 715.7506710681861 164.51242155825463 730.9327587861187 258.2744483622867C746.1148465040515 352.03647516631884 452.70203003576603 592.8868862894329 315.2486669747684 630.5730411680905 "></path><path d="M705.4763387330098 269.1763751390309C719.490573549563 355.7259383427528 448.64797373268425 578.0493947640889 321.76794629176334 612.8366146520806C194.8879188508423 647.6238345400723 110.46644183314248 522.7045938051126 96.45220701658928 436.15503060139065C82.43797220003609 349.6054673976687 127.6195917313861 232.1859311622074 254.49961917230712 197.39871127421577C381.37964661322803 162.6114913862241 691.4621039164566 182.62681193530892 705.4763387330098 269.1763751390309C719.490573549563 355.7259383427528 448.64797373268425 578.0493947640889 321.76794629176334 612.8366146520806 "></path><path d="M680.0199797150572 280.07837820972037C692.8663616302309 359.41547781313216 444.5939784647587 563.2119795326902 328.2872866439145 595.1002644300158C211.9805948230703 626.9885493273416 134.5942408901788 512.4792453202953 121.74785897500504 433.14214571688353C108.90147705983122 353.8050461134717 150.3179616302354 246.17047123096552 266.62465345107967 214.2821863336398C382.9313452719239 182.39390143631414 667.1735977998834 200.74127860630858 680.0199797150572 280.07837820972037C692.8663616302309 359.41547781313216 444.5939784647587 563.2119795326902 328.2872866439145 595.1002644300158 "></path><path d="M654.5636054383156 290.9803202452536C666.2421344521098 363.10495624835517 440.53996793804424 548.3745032661352 334.80661173727674 577.363853172795C229.07325553650924 606.3532030794547 158.72202468842602 502.25383580032167 147.04349567463169 430.12919979722005C135.36496666083735 358.0045637941185 173.0163162702957 260.1549502645674 278.74967247106315 231.16560035790764C384.48302867183065 202.17625045124794 642.885076424521 218.855684242152 654.5636054383156 290.9803202452536C666.2421344521098 363.10495624835517 440.53996793804424 548.3745032661352 334.80661173727674 577.363853172795 "></path><path d="M629.1072464203628 301.882292798365C639.6179225327778 366.7944652011564 436.4859726701187 533.5370575171585 341.32595208942803 559.6274724331522C246.16593150873723 585.7178873491459 182.84982374546234 492.0284567979263 172.33914763304745 427.1162843951348C161.82847152063255 362.2041119923433 195.714686169145 274.13945981574733 290.8747067498358 248.0490448997536C386.0347273305265 221.95862998375986 618.5965703079479 236.97012039557353 629.1072464203628 301.882292798365C639.6179225327778 366.7944652011564 436.4859726701187 533.5370575171585 341.32595208942803 559.6274724331522 "></path><path d="M603.6508874024103 312.7842806102654C612.9937106134457 370.48398941274667 432.4319774021932 518.6996270269707 347.8452924415792 541.8911069522985C263.2586074809652 565.0825868776262 206.97762280249867 481.8030930543199 197.63479959146315 424.10338425183863C188.29197638042768 366.4036754493573 218.41305606799438 288.1239846257164 302.99974102860836 264.9325047003886C387.58642598922233 241.74102477506085 594.3080641913747 255.08457180778407 603.6508874024103 312.7842806102654C612.9937106134457 370.48398941274667 432.4319774021932 518.6996270269707 347.8452924415792 541.8911069522985 "></path><path d="M578.1945131256684 323.68623790458764C586.3694834353246 374.1734831067588 428.3779668754786 503.8621660192048 354.3646175349413 524.1547109538667C280.3512681944041 544.4472558885284 231.10540660074588 471.57769879313537 222.93043629108985 421.0904535909642C214.75546598143382 370.6032083887931 241.11141070805462 302.1084789181073 315.1247600485919 281.8159339834455C389.1381093891291 261.5233890487837 570.0195428160125 273.19899270241655 578.1945131256684 323.68623790458764C586.3694834353246 374.1734831067588 428.3779668754786 503.8621660192048 354.3646175349413 524.1547109538667 "></path><path d="M552.738169366505 334.58819519890994C559.7452867747816 377.8629768007709 424.3239868663421 489.024705011439 360.88397314588167 506.4183149554349C297.44395942542116 523.8119248994307 255.23322091657127 461.35230453195084 248.2261035082946 418.07752293008986C241.21898610001801 374.8027413282289 263.80979586569305 316.09297321049826 327.24980958615356 298.6993632665024C390.689823306614 281.3057533225066 545.7310519582284 291.313413597049 552.738169366505 334.58819519890994C559.7452867747816 377.8629768007709 424.3239868663421 489.024705011439 360.88397314588167 506.4183149554349 "></path><path d="M527.2818103485523 345.4901677520213C533.1210748554495 381.5524857535721 420.2699915984167 474.18725926246213 367.4033134980329 488.681934215792C314.53663539764915 503.1766091691219 279.36101997360754 451.12692552955536 273.5217554667104 415.06460752800456C267.6824909598132 379.00228952645375 286.50816576454235 330.0774827616782 339.3748438649261 315.5828078083484C392.24152196530986 301.0881328550185 521.442545841655 309.4278497504705 527.2818103485523 345.4901677520213C533.1210748554495 381.5524857535721 420.2699915984167 474.18725926246213 367.4033134980329 488.681934215792 "></path><path d="M501.82545133059966 356.39210978755455C506.4968629361174 385.24196418879524 416.2159963304911 459.3497829959072 373.92265385018413 470.94552295857113C331.62931136987714 482.541262921235 303.48881903064387 440.9015160095818 298.81740742512613 412.0516616083412C294.1459958196084 383.2018072071005 309.2065356633917 344.06196179528007 351.4998781436987 332.4662218326162C393.7932206240057 320.8704818699523 497.15403972508193 327.5422553863139 501.82545133059966 356.39210978755455C506.4968629361174 385.24196418879524 416.2159963304911 459.3497829959072 373.92265385018413 470.94552295857113 "></path><path d="M476.36907705385795 367.294097599455C479.87263575799625 388.93148840038543 412.16198580377653 444.5123525057195 380.4419789435463 453.20915747771744C348.7219720833161 461.90596244971533 327.6166028288911 430.6761522659754 324.1130441247528 409.03876146504496C320.6094854206145 387.40137066411444 331.90489030345196 358.04648660524913 363.62489716368225 349.3496816332512C395.3449040239125 340.6528766612533 472.86551834971965 345.6567067985245 476.36907705385795 367.294097599455C479.87263575799625 388.93148840038543 412.16198580377653 444.5123525057195 380.4419789435463 453.20915747771744 "></path><path d="M450.9127180359053 378.19607015256634C453.24842383866417 392.6209973531867 408.10799053585106 429.67490675674264 386.96131929569754 435.47277673807463C365.814648055544 441.27064671940656 351.7444018859274 420.45077326357995 349.40869608316854 406.02584606295966C347.07299028040967 391.6009188623393 354.6032602023013 372.0309961564291 375.7499314424548 366.23312617509714C396.8966026826083 360.4352561937652 448.57701223314643 363.77114295194605 450.9127180359053 378.19607015256634C453.24842383866417 392.6209973531867 408.10799053585106 429.67490675674264 386.96131929569754 435.47277673807463 "></path><path d="M425.45635901795265 389.09802744688864C426.6242119193321 396.3104910471988 404.05399526792553 414.8374457489768 393.48065964784877 417.73638073964275C382.907324027772 420.6353157303088 375.8722009429637 410.22537900239547 374.70434804158424 403.0129154020853C373.5364951402048 395.8004518017751 377.30163010115064 386.01549044882 387.8749657212274 383.11655545815404C398.44830134130416 380.2176204674881 424.2885061165732 381.88556384657846 425.45635901795265 389.09802744688864C426.6242119193321 396.3104910471988 404.05399526792553 414.8374457489768 393.48065964784877 417.73638073964275 "></path></g></svg>